<svg width="720" height="40" xmlns="http://www.w3.org/2000/svg">
 <style type="text/css">.st0{fill:#E7413E;}</style>

 <g>
  <title>background</title>
  <rect fill="none" id="canvas_background" height="42" width="722" y="-1" x="-1"/>
 </g>
 <g>
  <title>Layer 1</title>
  <g stroke="null" id="svg_26">
   <path stroke="null" id="svg_1" d="m13.7,0.2c0,0 0,0 0,0l0,4.547816c0,0 0,0 0,0c4.1,0 8.7,6.178166 8.7,15.102183c0,8.838209 -4.6,15.102183 -8.7,15.102183c0,0 0,0 0,0l0,4.547816c0,0 0,0 0,0c7.9,0 14,-8.580786 14,-19.564192s-6.1,-19.735807 -14,-19.735807z" class="st0"/>
   <path stroke="null" id="svg_2" d="m43.8,0.2c0,0 0,0 0,0l0,4.547816c0,0 0,0 0,0c4.1,0 8.7,6.178166 8.7,15.102183c0,8.838209 -4.6,15.102183 -8.7,15.102183c0,0 0,0 0,0l0,4.547816c0,0 0,0 0,0c7.9,0 14,-8.580786 14,-19.564192s-6.1,-19.735807 -14,-19.735807z" class="st0"/>
   <path stroke="null" id="svg_3" d="m73.9,0.2c0,0 0,0 0,0l0,4.547816c0,0 0,0 0,0c4.1,0 8.7,6.178166 8.7,15.102183c0,8.838209 -4.6,15.102183 -8.7,15.102183c0,0 0,0 0,0l0,4.547816c0,0 0,0 0,0c7.9,0 14,-8.580786 14,-19.564192s-6.1,-19.735807 -14,-19.735807z" class="st0"/>
   <path stroke="null" id="svg_4" d="m104,0.2c0,0 0,0 0,0l0,4.547816c0,0 0,0 0,0c4.1,0 8.7,6.178166 8.7,15.102183c0,8.838209 -4.6,15.102183 -8.7,15.102183c0,0 0,0 0,0l0,4.547816c0,0 0,0 0,0c7.9,0 14,-8.580786 14,-19.564192s-6.2,-19.735807 -14,-19.735807z" class="st0"/>
   <path stroke="null" id="svg_5" d="m134,0.2c0,0 0,0 0,0l0,4.547816c0,0 0,0 0,0c4.1,0 8.7,6.178166 8.7,15.102183c0,8.838209 -4.6,15.102183 -8.7,15.102183c0,0 0,0 0,0l0,4.547816c0,0 0,0 0,0c7.9,0 14,-8.580786 14,-19.564192s-6.1,-19.735807 -14,-19.735807z" class="st0"/>
   <path stroke="null" id="svg_6" d="m164.1,0.2c0,0 0,0 0,0l0,4.547816c0,0 0,0 0,0c4.1,0 8.7,6.178166 8.7,15.102183c0,8.838209 -4.6,15.102183 -8.7,15.102183c0,0 0,0 0,0l0,4.547816c0,0 0,0 0,0c7.9,0 14,-8.580786 14,-19.564192s-6.1,-19.735807 -14,-19.735807z" class="st0"/>
   <path stroke="null" id="svg_7" d="m194.2,0.2c0,0 0,0 0,0l0,4.547816c0,0 0,0 0,0c4.1,0 8.7,6.178166 8.7,15.102183c0,8.838209 -4.6,15.102183 -8.7,15.102183c0,0 0,0 0,0l0,4.547816c0,0 0,0 0,0c7.9,0 14,-8.580786 14,-19.564192s-6.2,-19.735807 -14,-19.735807z" class="st0"/>
   <path stroke="null" id="svg_8" d="m224.2,0.2c0,0 0,0 0,0l0,4.547816c0,0 0,0 0,0c4.1,0 8.7,6.178166 8.7,15.102183c0,8.838209 -4.6,15.102183 -8.7,15.102183c0,0 0,0 0,0l0,4.547816c0,0 0,0 0,0c7.9,0 14,-8.580786 14,-19.564192s-6.1,-19.735807 -14,-19.735807z" class="st0"/>
   <path stroke="null" id="svg_9" d="m254.3,0.2c0,0 0,0 0,0l0,4.547816c0,0 0,0 0,0c4.1,0 8.7,6.178166 8.7,15.102183c0,8.838209 -4.6,15.102183 -8.7,15.102183c0,0 0,0 0,0l0,4.547816c0,0 0,0 0,0c7.9,0 14,-8.580786 14,-19.564192s-6.1,-19.735807 -14,-19.735807z" class="st0"/>
   <path stroke="null" id="svg_10" d="m284.4,0.2c0,0 0,0 0,0l0,4.547816c0,0 0,0 0,0c4.1,0 8.7,6.178166 8.7,15.102183c0,8.838209 -4.6,15.102183 -8.7,15.102183c0,0 0,0 0,0l0,4.547816c0,0 0,0 0,0c7.9,0 14,-8.580786 14,-19.564192s-6.1,-19.735807 -14,-19.735807z" class="st0"/>
   <path stroke="null" id="svg_11" d="m314.5,0.2c0,0 0,0 0,0l0,4.547816c0,0 0,0 0,0c4.1,0 8.7,6.178166 8.7,15.102183c0,8.838209 -4.6,15.102183 -8.7,15.102183c0,0 0,0 0,0l0,4.547816c0,0 0,0 0,0c7.9,0 14,-8.580786 14,-19.564192s-6.2,-19.735807 -14,-19.735807z" class="st0"/>
   <path stroke="null" id="svg_12" d="m344.5,0.2c0,0 0,0 0,0l0,4.547816c0,0 0,0 0,0c4.1,0 8.7,6.178166 8.7,15.102183c0,8.838209 -4.6,15.102183 -8.7,15.102183c0,0 0,0 0,0l0,4.547816c0,0 0,0 0,0c7.9,0 14,-8.580786 14,-19.564192s-6.1,-19.735807 -14,-19.735807z" class="st0"/>
   <path stroke="null" id="svg_13" d="m374.6,0.2c0,0 0,0 0,0l0,4.547816c0,0 0,0 0,0c4.1,0 8.7,6.178166 8.7,15.102183c0,8.838209 -4.6,15.102183 -8.7,15.102183c0,0 0,0 0,0l0,4.547816c0,0 0,0 0,0c7.9,0 14,-8.580786 14,-19.564192s-6.1,-19.735807 -14,-19.735807z" class="st0"/>
   <path stroke="null" id="svg_14" d="m404.7,0.2c0,0 0,0 0,0l0,4.547816c0,0 0,0 0,0c4.1,0 8.7,6.178166 8.7,15.102183c0,8.838209 -4.6,15.102183 -8.7,15.102183c0,0 0,0 0,0l0,4.547816c0,0 0,0 0,0c7.9,0 14,-8.580786 14,-19.564192s-6.2,-19.735807 -14,-19.735807z" class="st0"/>
   <path stroke="null" id="svg_15" d="m434.7,0.2c0,0 0,0 0,0l0,4.547816c0,0 0,0 0,0c4.1,0 8.7,6.178166 8.7,15.102183c0,8.838209 -4.6,15.102183 -8.7,15.102183c0,0 0,0 0,0l0,4.547816c0,0 0,0 0,0c7.9,0 14,-8.580786 14,-19.564192s-6.1,-19.735807 -14,-19.735807z" class="st0"/>
   <path stroke="null" id="svg_16" d="m464.8,0.2c0,0 0,0 0,0l0,4.547816c0,0 0,0 0,0c4.1,0 8.7,6.178166 8.7,15.102183c0,8.838209 -4.6,15.102183 -8.7,15.102183c0,0 0,0 0,0l0,4.547816c0,0 0,0 0,0c7.9,0 14,-8.580786 14,-19.564192s-6.1,-19.735807 -14,-19.735807z" class="st0"/>
   <path stroke="null" id="svg_17" d="m494.9,0.2c0,0 0,0 0,0l0,4.547816c0,0 0,0 0,0c4.1,0 8.7,6.178166 8.7,15.102183c0,8.838209 -4.6,15.102183 -8.7,15.102183c0,0 0,0 0,0l0,4.547816c0,0 0,0 0,0c7.9,0 14,-8.580786 14,-19.564192s-6.1,-19.735807 -14,-19.735807z" class="st0"/>
   <path stroke="null" id="svg_18" d="m525,0.2c0,0 0,0 0,0l0,4.547816c0,0 0,0 0,0c4.1,0 8.7,6.178166 8.7,15.102183c0,8.838209 -4.6,15.102183 -8.7,15.102183c0,0 0,0 0,0l0,4.547816c0,0 0,0 0,0c7.9,0 14,-8.580786 14,-19.564192s-6.2,-19.735807 -14,-19.735807z" class="st0"/>
   <path stroke="null" id="svg_19" d="m555,0.2c0,0 0,0 0,0l0,4.547816c0,0 0,0 0,0c4.1,0 8.7,6.178166 8.7,15.102183c0,8.838209 -4.6,15.102183 -8.7,15.102183c0,0 0,0 0,0l0,4.547816c0,0 0,0 0,0c7.9,0 14,-8.580786 14,-19.564192s-6.1,-19.735807 -14,-19.735807z" class="st0"/>
   <path stroke="null" id="svg_20" d="m585.1,0.2c0,0 0,0 0,0l0,4.547816c0,0 0,0 0,0c4.1,0 8.7,6.178166 8.7,15.102183c0,8.838209 -4.6,15.102183 -8.7,15.102183c0,0 0,0 0,0l0,4.547816c0,0 0,0 0,0c7.9,0 14,-8.580786 14,-19.564192s-6.1,-19.735807 -14,-19.735807z" class="st0"/>
   <path stroke="null" id="svg_21" d="m615.2,0.2c0,0 0,0 0,0l0,4.547816c0,0 0,0 0,0c4.1,0 8.7,6.178166 8.7,15.102183c0,8.838209 -4.6,15.102183 -8.7,15.102183c0,0 0,0 0,0l0,4.547816c0,0 0,0 0,0c7.9,0 14,-8.580786 14,-19.564192s-6.2,-19.735807 -14,-19.735807z" class="st0"/>
   <path stroke="null" id="svg_22" d="m645.3,0.2c0,0 0,0 0,0l0,4.547816c0,0 0,0 0,0c4.1,0 8.7,6.178166 8.7,15.102183c0,8.838209 -4.6,15.102183 -8.7,15.102183c0,0 0,0 0,0l0,4.547816c0,0 0,0 0,0c7.9,0 14,-8.580786 14,-19.564192s-6.2,-19.735807 -14,-19.735807z" class="st0"/>
   <path stroke="null" id="svg_23" d="m675.3,0.2c0,0 0,0 0,0l0,4.547816c0,0 0,0 0,0c4.1,0 8.7,6.178166 8.7,15.102183c0,8.838209 -4.6,15.102183 -8.7,15.102183c0,0 0,0 0,0l0,4.547816c0,0 0,0 0,0c7.9,0 14,-8.580786 14,-19.564192s-6.1,-19.735807 -14,-19.735807z" class="st0"/>
   <path stroke="null" id="svg_24" d="m705.4,0.2c0,0 0,0 0,0l0,4.547816c0,0 0,0 0,0c4.1,0 8.7,6.178166 8.7,15.102183c0,8.838209 -4.6,15.102183 -8.7,15.102183c0,0 0,0 0,0l0,4.547816c0,0 0,0 0,0c7.9,0 14,-8.580786 14,-19.564192s-6.1,-19.735807 -14,-19.735807z" class="st0"/>
  </g>
 </g>
</svg>