<?xml version="1.0" encoding="utf-8"?>
<!-- Generator: Adobe Illustrator 21.1.0, SVG Export Plug-In . SVG Version: 6.00 Build 0)  -->
<svg version="1.1" id="Calque_1" xmlns="http://www.w3.org/2000/svg" xmlns:xlink="http://www.w3.org/1999/xlink" x="0px" y="0px"
	 viewBox="0 0 750 46.1" style="enable-background:new 0 0 750 46.1;" xml:space="preserve">
<style type="text/css">
	.st0{fill:#E7413E;}
</style>
<path class="st0" d="M14.2,0.2C14.2,0.2,14.2,0.2,14.2,0.2l0,5.3c0,0,0,0,0,0c4.1,0,8.7,7.2,8.7,17.6c0,10.3-4.6,17.6-8.7,17.6
	c0,0,0,0,0,0v5.3c0,0,0,0,0,0c7.9,0,14-10,14-22.8S22.1,0.2,14.2,0.2z"/>
<path class="st0" d="M44.3,0.2C44.3,0.2,44.3,0.2,44.3,0.2l0,5.3c0,0,0,0,0,0c4.1,0,8.7,7.2,8.7,17.6c0,10.3-4.6,17.6-8.7,17.6
	c0,0,0,0,0,0v5.3c0,0,0,0,0,0c7.9,0,14-10,14-22.8S52.2,0.2,44.3,0.2z"/>
<path class="st0" d="M74.4,0.2C74.4,0.2,74.4,0.2,74.4,0.2l0,5.3c0,0,0,0,0,0c4.1,0,8.7,7.2,8.7,17.6c0,10.3-4.6,17.6-8.7,17.6
	c0,0,0,0,0,0v5.3c0,0,0,0,0,0c7.9,0,14-10,14-22.8S82.3,0.2,74.4,0.2z"/>
<path class="st0" d="M104.5,0.2C104.5,0.2,104.5,0.2,104.5,0.2l0,5.3c0,0,0,0,0,0c4.1,0,8.7,7.2,8.7,17.6c0,10.3-4.6,17.6-8.7,17.6
	c0,0,0,0,0,0v5.3c0,0,0,0,0,0c7.9,0,14-10,14-22.8S112.3,0.2,104.5,0.2z"/>
<path class="st0" d="M134.5,0.2C134.5,0.2,134.5,0.2,134.5,0.2l0,5.3c0,0,0,0,0,0c4.1,0,8.7,7.2,8.7,17.6c0,10.3-4.6,17.6-8.7,17.6
	c0,0,0,0,0,0v5.3c0,0,0,0,0,0c7.9,0,14-10,14-22.8S142.4,0.2,134.5,0.2z"/>
<path class="st0" d="M164.6,0.2C164.6,0.2,164.6,0.2,164.6,0.2l0,5.3c0,0,0,0,0,0c4.1,0,8.7,7.2,8.7,17.6c0,10.3-4.6,17.6-8.7,17.6
	c0,0,0,0,0,0v5.3c0,0,0,0,0,0c7.9,0,14-10,14-22.8S172.5,0.2,164.6,0.2z"/>
<path class="st0" d="M194.7,0.2C194.7,0.2,194.7,0.2,194.7,0.2l0,5.3c0,0,0,0,0,0c4.1,0,8.7,7.2,8.7,17.6c0,10.3-4.6,17.6-8.7,17.6
	c0,0,0,0,0,0v5.3c0,0,0,0,0,0c7.9,0,14-10,14-22.8S202.5,0.2,194.7,0.2z"/>
<path class="st0" d="M224.7,0.2C224.7,0.2,224.7,0.2,224.7,0.2l0,5.3c0,0,0,0,0,0c4.1,0,8.7,7.2,8.7,17.6c0,10.3-4.6,17.6-8.7,17.6
	c0,0,0,0,0,0v5.3c0,0,0,0,0,0c7.9,0,14-10,14-22.8S232.6,0.2,224.7,0.2z"/>
<path class="st0" d="M254.8,0.2C254.8,0.2,254.8,0.2,254.8,0.2l0,5.3c0,0,0,0,0,0c4.1,0,8.7,7.2,8.7,17.6c0,10.3-4.6,17.6-8.7,17.6
	c0,0,0,0,0,0v5.3c0,0,0,0,0,0c7.9,0,14-10,14-22.8S262.7,0.2,254.8,0.2z"/>
<path class="st0" d="M284.9,0.2C284.9,0.2,284.9,0.2,284.9,0.2l0,5.3c0,0,0,0,0,0c4.1,0,8.7,7.2,8.7,17.6c0,10.3-4.6,17.6-8.7,17.6
	c0,0,0,0,0,0v5.3c0,0,0,0,0,0c7.9,0,14-10,14-22.8S292.8,0.2,284.9,0.2z"/>
<path class="st0" d="M315,0.2C315,0.2,315,0.2,315,0.2l0,5.3c0,0,0,0,0,0c4.1,0,8.7,7.2,8.7,17.6c0,10.3-4.6,17.6-8.7,17.6
	c0,0,0,0,0,0v5.3c0,0,0,0,0,0c7.9,0,14-10,14-22.8S322.8,0.2,315,0.2z"/>
<path class="st0" d="M345,0.2C345,0.2,345,0.2,345,0.2l0,5.3c0,0,0,0,0,0c4.1,0,8.7,7.2,8.7,17.6c0,10.3-4.6,17.6-8.7,17.6
	c0,0,0,0,0,0v5.3c0,0,0,0,0,0c7.9,0,14-10,14-22.8S352.9,0.2,345,0.2z"/>
<path class="st0" d="M375.1,0.2C375.1,0.2,375.1,0.2,375.1,0.2l0,5.3c0,0,0,0,0,0c4.1,0,8.7,7.2,8.7,17.6c0,10.3-4.6,17.6-8.7,17.6
	c0,0,0,0,0,0v5.3c0,0,0,0,0,0c7.9,0,14-10,14-22.8S383,0.2,375.1,0.2z"/>
<path class="st0" d="M405.2,0.2C405.2,0.2,405.2,0.2,405.2,0.2l0,5.3c0,0,0,0,0,0c4.1,0,8.7,7.2,8.7,17.6c0,10.3-4.6,17.6-8.7,17.6
	c0,0,0,0,0,0v5.3c0,0,0,0,0,0c7.9,0,14-10,14-22.8S413,0.2,405.2,0.2z"/>
<path class="st0" d="M435.2,0.2C435.2,0.2,435.2,0.2,435.2,0.2l0,5.3c0,0,0,0,0,0c4.1,0,8.7,7.2,8.7,17.6c0,10.3-4.6,17.6-8.7,17.6
	c0,0,0,0,0,0v5.3c0,0,0,0,0,0c7.9,0,14-10,14-22.8S443.1,0.2,435.2,0.2z"/>
<path class="st0" d="M465.3,0.2C465.3,0.2,465.3,0.2,465.3,0.2l0,5.3c0,0,0,0,0,0c4.1,0,8.7,7.2,8.7,17.6c0,10.3-4.6,17.6-8.7,17.6
	c0,0,0,0,0,0v5.3c0,0,0,0,0,0c7.9,0,14-10,14-22.8S473.2,0.2,465.3,0.2z"/>
<path class="st0" d="M495.4,0.2C495.4,0.2,495.4,0.2,495.4,0.2l0,5.3c0,0,0,0,0,0c4.1,0,8.7,7.2,8.7,17.6c0,10.3-4.6,17.6-8.7,17.6
	c0,0,0,0,0,0v5.3c0,0,0,0,0,0c7.9,0,14-10,14-22.8S503.3,0.2,495.4,0.2z"/>
<path class="st0" d="M525.5,0.2C525.5,0.2,525.5,0.2,525.5,0.2l0,5.3c0,0,0,0,0,0c4.1,0,8.7,7.2,8.7,17.6c0,10.3-4.6,17.6-8.7,17.6
	c0,0,0,0,0,0v5.3c0,0,0,0,0,0c7.9,0,14-10,14-22.8S533.3,0.2,525.5,0.2z"/>
<path class="st0" d="M555.5,0.2C555.5,0.2,555.5,0.2,555.5,0.2l0,5.3c0,0,0,0,0,0c4.1,0,8.7,7.2,8.7,17.6c0,10.3-4.6,17.6-8.7,17.6
	c0,0,0,0,0,0v5.3c0,0,0,0,0,0c7.9,0,14-10,14-22.8S563.4,0.2,555.5,0.2z"/>
<path class="st0" d="M585.6,0.2C585.6,0.2,585.6,0.2,585.6,0.2l0,5.3c0,0,0,0,0,0c4.1,0,8.7,7.2,8.7,17.6c0,10.3-4.6,17.6-8.7,17.6
	c0,0,0,0,0,0v5.3c0,0,0,0,0,0c7.9,0,14-10,14-22.8S593.5,0.2,585.6,0.2z"/>
<path class="st0" d="M615.7,0.2C615.7,0.2,615.7,0.2,615.7,0.2l0,5.3c0,0,0,0,0,0c4.1,0,8.7,7.2,8.7,17.6c0,10.3-4.6,17.6-8.7,17.6
	c0,0,0,0,0,0v5.3c0,0,0,0,0,0c7.9,0,14-10,14-22.8S623.5,0.2,615.7,0.2z"/>
<path class="st0" d="M645.8,0.2C645.8,0.2,645.8,0.2,645.8,0.2l0,5.3c0,0,0,0,0,0c4.1,0,8.7,7.2,8.7,17.6c0,10.3-4.6,17.6-8.7,17.6
	c0,0,0,0,0,0v5.3c0,0,0,0,0,0c7.9,0,14-10,14-22.8S653.6,0.2,645.8,0.2z"/>
<path class="st0" d="M675.8,0.2C675.8,0.2,675.8,0.2,675.8,0.2l0,5.3c0,0,0,0,0,0c4.1,0,8.7,7.2,8.7,17.6c0,10.3-4.6,17.6-8.7,17.6
	c0,0,0,0,0,0v5.3c0,0,0,0,0,0c7.9,0,14-10,14-22.8S683.7,0.2,675.8,0.2z"/>
<path class="st0" d="M705.9,0.2C705.9,0.2,705.9,0.2,705.9,0.2l0,5.3c0,0,0,0,0,0c4.1,0,8.7,7.2,8.7,17.6c0,10.3-4.6,17.6-8.7,17.6
	c0,0,0,0,0,0v5.3c0,0,0,0,0,0c7.9,0,14-10,14-22.8S713.8,0.2,705.9,0.2z"/>
<path class="st0" d="M736,0.2C736,0.2,736,0.2,736,0.2l0,5.3c0,0,0,0,0,0c4.1,0,8.7,7.2,8.7,17.6c0,10.3-4.6,17.6-8.7,17.6
	c0,0,0,0,0,0v5.3c0,0,0,0,0,0c7.9,0,14-10,14-22.8S743.8,0.2,736,0.2z"/>
</svg>
