<svg width="720" height="40" xmlns="http://www.w3.org/2000/svg">
 <style type="text/css">.st0{fill:#E7413E;}</style>

 <g>
  <title>background</title>
  <rect fill="none" id="canvas_background" height="42" width="722" y="-1" x="-1"/>
 </g>
 <g>
  <title>Layer 1</title>
  <g stroke="null" id="svg_26">
   <path stroke="null" id="svg_1" d="m14.2,35.284211c-4.1,0 -8.7,-6.252632 -8.7,-15.284211c0,-8.944737 4.6,-15.284211 8.7,-15.284211l0,-4.51579c-7.9,0 -14,8.684211 -14,19.8s6.2,19.8 14,19.8l0,-4.51579z" class="st0"/>
   <path stroke="null" id="svg_2" d="m44.3,35.284211c-4.1,0 -8.7,-6.252632 -8.7,-15.284211c0,-8.944737 4.6,-15.284211 8.7,-15.284211l0,-4.51579c-7.9,0 -14,8.684211 -14,19.8s6.2,19.8 14,19.8l0,-4.51579z" class="st0"/>
   <path stroke="null" id="svg_3" d="m74.4,35.284211c-4.1,0 -8.7,-6.252632 -8.7,-15.284211c0,-8.944737 4.6,-15.284211 8.7,-15.284211l0,-4.51579c-7.9,0 -14,8.684211 -14,19.8s6.2,19.8 14,19.8l0,-4.51579z" class="st0"/>
   <path stroke="null" id="svg_4" d="m104.5,35.284211c-4.1,0 -8.7,-6.252632 -8.7,-15.284211c0,-8.944737 4.6,-15.284211 8.7,-15.284211l0,-4.51579c-7.9,0 -14,8.684211 -14,19.8s6.2,19.8 14,19.8l0,-4.51579z" class="st0"/>
   <path stroke="null" id="svg_5" d="m134.5,35.284211c-4.1,0 -8.7,-6.252632 -8.7,-15.284211c0,-8.944737 4.6,-15.284211 8.7,-15.284211l0,-4.51579c-7.9,0 -14,8.684211 -14,19.8s6.2,19.8 14,19.8l0,-4.51579z" class="st0"/>
   <path stroke="null" id="svg_6" d="m164.6,35.284211c-4.1,0 -8.7,-6.252632 -8.7,-15.284211c0,-8.944737 4.6,-15.284211 8.7,-15.284211l0,-4.51579c-7.9,0 -14,8.684211 -14,19.8s6.2,19.8 14,19.8l0,-4.51579z" class="st0"/>
   <path stroke="null" id="svg_7" d="m194.7,35.284211c-4.1,0 -8.7,-6.252632 -8.7,-15.284211c0,-8.944737 4.6,-15.284211 8.7,-15.284211l0,-4.51579c-7.9,0 -14,8.684211 -14,19.8s6.2,19.8 14,19.8l0,-4.51579z" class="st0"/>
   <path stroke="null" id="svg_8" d="m224.7,35.284211c-4.1,0 -8.7,-6.252632 -8.7,-15.284211c0,-8.944737 4.6,-15.284211 8.7,-15.284211l0,-4.51579c-7.9,0 -14,8.684211 -14,19.8s6.2,19.8 14,19.8l0,-4.51579z" class="st0"/>
   <path stroke="null" id="svg_9" d="m254.8,35.284211c-4.1,0 -8.7,-6.252632 -8.7,-15.284211c0,-8.944737 4.6,-15.284211 8.7,-15.284211l0,-4.51579c-7.9,0 -14,8.684211 -14,19.8s6.2,19.8 14,19.8l0,-4.51579z" class="st0"/>
   <path stroke="null" id="svg_10" d="m284.9,35.284211c-4.1,0 -8.7,-6.252632 -8.7,-15.284211c0,-8.944737 4.6,-15.284211 8.7,-15.284211l0,-4.51579c-7.9,0 -14,8.684211 -14,19.8s6.2,19.8 14,19.8l0,-4.51579z" class="st0"/>
   <path stroke="null" id="svg_11" d="m315,35.284211c-4.1,0 -8.7,-6.252632 -8.7,-15.284211c0,-8.944737 4.6,-15.284211 8.7,-15.284211l0,-4.51579c-7.9,0 -14,8.684211 -14,19.8s6.2,19.8 14,19.8l0,-4.51579z" class="st0"/>
   <path stroke="null" id="svg_12" d="m345,35.284211c-4.1,0 -8.7,-6.252632 -8.7,-15.284211c0,-8.944737 4.6,-15.284211 8.7,-15.284211l0,-4.51579c-7.9,0 -14,8.684211 -14,19.8s6.2,19.8 14,19.8l0,-4.51579z" class="st0"/>
   <path stroke="null" id="svg_13" d="m375.1,35.284211c-4.1,0 -8.7,-6.252632 -8.7,-15.284211c0,-8.944737 4.6,-15.284211 8.7,-15.284211l0,-4.51579c-7.9,0 -14,8.684211 -14,19.8s6.2,19.8 14,19.8l0,-4.51579z" class="st0"/>
   <path stroke="null" id="svg_14" d="m405.2,35.284211c-4.1,0 -8.7,-6.252632 -8.7,-15.284211c0,-8.944737 4.6,-15.284211 8.7,-15.284211l0,-4.51579c-7.9,0 -14,8.684211 -14,19.8s6.2,19.8 14,19.8l0,-4.51579z" class="st0"/>
   <path stroke="null" id="svg_15" d="m435.2,35.284211c-4.1,0 -8.7,-6.252632 -8.7,-15.284211c0,-8.944737 4.6,-15.284211 8.7,-15.284211l0,-4.51579c-7.9,0 -14,8.684211 -14,19.8s6.2,19.8 14,19.8l0,-4.51579z" class="st0"/>
   <path stroke="null" id="svg_16" d="m465.3,35.284211c-4.1,0 -8.7,-6.252632 -8.7,-15.284211c0,-8.944737 4.6,-15.284211 8.7,-15.284211l0,-4.51579c-7.9,0 -14,8.684211 -14,19.8s6.2,19.8 14,19.8l0,-4.51579z" class="st0"/>
   <path stroke="null" id="svg_17" d="m495.4,35.284211c-4.1,0 -8.7,-6.252632 -8.7,-15.284211c0,-8.944737 4.6,-15.284211 8.7,-15.284211l0,-4.51579c-7.9,0 -14,8.684211 -14,19.8s6.2,19.8 14,19.8l0,-4.51579z" class="st0"/>
   <path stroke="null" id="svg_18" d="m525.5,35.284211c-4.1,0 -8.7,-6.252632 -8.7,-15.284211c0,-8.944737 4.6,-15.284211 8.7,-15.284211l0,-4.51579c-7.9,0 -14,8.684211 -14,19.8s6.2,19.8 14,19.8l0,-4.51579z" class="st0"/>
   <path stroke="null" id="svg_19" d="m555.5,35.284211c-4.1,0 -8.7,-6.252632 -8.7,-15.284211c0,-8.944737 4.6,-15.284211 8.7,-15.284211l0,-4.51579c-7.9,0 -14,8.684211 -14,19.8s6.2,19.8 14,19.8l0,-4.51579z" class="st0"/>
   <path stroke="null" id="svg_20" d="m585.6,35.284211c-4.1,0 -8.7,-6.252632 -8.7,-15.284211c0,-8.944737 4.6,-15.284211 8.7,-15.284211l0,-4.51579c-7.9,0 -14,8.684211 -14,19.8s6.2,19.8 14,19.8l0,-4.51579z" class="st0"/>
   <path stroke="null" id="svg_21" d="m615.7,35.284211c-4.1,0 -8.7,-6.252632 -8.7,-15.284211c0,-8.944737 4.6,-15.284211 8.7,-15.284211l0,-4.51579c-7.9,0 -14,8.684211 -14,19.8s6.2,19.8 14,19.8l0,-4.51579z" class="st0"/>
   <path stroke="null" id="svg_22" d="m645.8,35.284211c-4.1,0 -8.7,-6.252632 -8.7,-15.284211c0,-8.944737 4.6,-15.284211 8.7,-15.284211l0,-4.51579c-7.9,0 -14,8.684211 -14,19.8s6.2,19.8 14,19.8l0,-4.51579z" class="st0"/>
   <path stroke="null" id="svg_23" d="m675.8,35.284211c-4.1,0 -8.7,-6.252632 -8.7,-15.284211c0,-8.944737 4.6,-15.284211 8.7,-15.284211l0,-4.51579c-7.9,0 -14,8.684211 -14,19.8s6.2,19.8 14,19.8l0,-4.51579z" class="st0"/>
   <path stroke="null" id="svg_24" d="m705.9,35.284211c-4.1,0 -8.7,-6.252632 -8.7,-15.284211c0,-8.944737 4.6,-15.284211 8.7,-15.284211l0,-4.51579c-7.9,0 -14,8.684211 -14,19.8s6.2,19.8 14,19.8l0,-4.51579z" class="st0"/>
  </g>
 </g>
</svg>