<?xml version="1.0" encoding="utf-8"?>
<!-- Generator: Adobe Illustrator 21.1.0, SVG Export Plug-In . SVG Version: 6.00 Build 0)  -->
<svg version="1.1" id="Calque_1" xmlns="http://www.w3.org/2000/svg" xmlns:xlink="http://www.w3.org/1999/xlink" x="0px" y="0px"
	 viewBox="0 0 104 153" style="enable-background:new 0 0 104 153;" xml:space="preserve">
<style type="text/css">
	.st0{fill:#FFFFFF;}
</style>
<path d="M88.1,142L55.7,70.9l26.6-58.4l2.6,1.2c1.9,0.9,2.4-0.8,3.2-2.7l0-0.1C89,9.1,89.9,7.7,88,6.8L76.7,1.7
	c-1.9-0.9-2.4,0.8-3.2,2.7l0,0.1c-0.9,1.9-1.8,3.3,0.1,4.2l2.6,1.2L52,62.7l-24.1-53l2.6-1.2c1.9-0.9,1-2.3,0.1-4.2l0-0.1
	c-0.9-1.9-1.4-3.5-3.2-2.7L16,6.8c-1.9,0.9-1,2.3-0.1,4.2l0,0.1c0.9,1.9,1.4,3.5,3.2,2.7l2.6-1.2l26.6,58.4L15.9,142l-1,8.6
	c-0.1,0.9,0.8,1.3,1.4,0.6l5.8-6.4L52,79.1l29.9,65.7l5.8,6.4c0.6,0.6,1.5,0.2,1.4-0.6L88.1,142z"/>
<circle class="st0" cx="52" cy="95.2" r="48.2"/>
<path d="M99,75.1c-2.7-6.3-6.5-12-11.4-16.7c-4.7-4.6-10.2-8.2-16.4-10.7C65,45.2,58.6,44,52,44l0,0c-6.8,0-13.5,1.4-19.9,4
	c-6.3,2.7-12,6.5-16.7,11.4c-4.6,4.7-8.2,10.2-10.7,16.4C2.2,82,1,88.4,1,95c0,6.8,1.4,13.5,4,19.8c2.7,6.3,6.5,12,11.4,16.7
	c4.7,4.6,10.2,8.2,16.4,10.7C39,144.8,45.4,146,52,146l0,0c6.8,0,13.5-1.4,19.8-4c6.3-2.7,12-6.5,16.7-11.4
	c4.6-4.7,8.2-10.2,10.7-16.4c2.6-6.2,3.8-12.6,3.8-19.2C103,88.1,101.6,81.5,99,75.1z M94.8,112c-16.5,6.6-35.2,3.2-48.2-9.1
	l-3.7-3.5c2.5-1,5.1-1.7,7.8-2.1c0.2,0,0.5-0.1,0.7-0.1c0,0,0,0,0.1,0c2.5,2,5.2,3.6,8.1,4.9c1.1,0.5,2.2,1,3.4,1.4
	c0.1,0,0.2,0.1,0.3,0.1c2.9,1,5.9,1.7,9,2c1.4,0.1,2.7,0.2,4.1,0.2l0,0c0.1,0,0.1,0,0.2,0c2.3,0,4.7-0.2,6.9-0.6
	c1.8-0.3,3.5-0.8,5.3-1.3c0.3-0.1,0.7-0.2,1-0.3c2.9-1,5.6-2.4,8.2-4C97.4,103.7,96.4,107.9,94.8,112z M8.1,108.7
	c-1.3-4.1-2-8.3-2.1-12.6c8.3-14.9,24.4-24.2,41.6-23.9h2c1,3,1.7,6.1,1.9,9.3L50,81.6C31.9,82.5,16.1,92.9,8.1,108.7z M9.1,78.5
	C15.9,66.8,28.9,60,42.5,61.4l1.2,0.1c1.7,2.1,3.1,4.3,4.2,6.7h-0.2c-16.2-0.3-31.5,7.3-41.1,19.9C7,84.8,7.9,81.6,9.1,78.5z
	 M94.4,77.1c2.4,5.6,3.6,11.4,3.6,17.4c-2.1,1.6-4.3,2.9-6.6,4c3.1-7.1,3.9-14.9,2.6-22.3C94.1,76.4,94.2,76.7,94.4,77.1z
	 M81.5,59.7c9.9,10.8,11.8,26.7,4.9,39.7l-0.5,1c-2.5,0.7-5,1.1-7.6,1.2l0.1-0.2C85,86.7,84,69.6,76.2,55.8
	C78,57,79.8,58.3,81.5,59.7z M68.9,52.2c10.5,13.5,12.8,32,5.8,47.6l-0.8,1.8c-3.2-0.2-6.3-0.8-9.3-1.9l0.5-1.4
	c6.3-16.9,2.9-35.6-8.6-49.1C60.8,49.6,64.9,50.6,68.9,52.2z M50.9,49c12.6,12.6,16.7,31.2,10.5,47.9l-0.5,1.3
	c-2.3-1.1-4.5-2.4-6.6-4c0.8-2.9,1.2-5.9,1.3-8.9c0-1.2,0-2.4,0-3.7c0-0.1,0-0.2,0-0.3c-0.2-3.1-0.8-6.1-1.7-9
	c-0.4-1.3-0.9-2.6-1.4-3.9c0-0.1-0.1-0.1-0.1-0.2c-0.9-2.2-2-4.2-3.3-6.2c-1-1.5-2.1-3-3.3-4.4c-0.2-0.2-0.4-0.5-0.6-0.7
	c-2.1-2.3-4.3-4.2-6.8-6C42.4,49.8,46.6,49.1,50.9,49z M33.5,52.9c2.2,1.3,4.2,2.7,6.1,4.4c-7.3-0.1-14.3,1.8-20.4,5.4
	C23.3,58.5,28.1,55.2,33.5,52.9z M50.1,85.6l1.4-0.1c-0.1,2.6-0.5,5.1-1.1,7.6c-0.1,0-0.3,0-0.4,0.1c-4,0.6-7.9,1.8-11.5,3.6l0,0
	h-0.1c-4.1,2-7.8,4.7-11,8c-0.2,0.3-0.5,0.5-0.7,0.8c-0.1,0.1-0.1,0.1-0.2,0.2c-0.2,0.1-0.3,0.3-0.4,0.5c-2.6,2.9-4.7,6.2-6.4,9.8
	c-1.3,2.8-2.2,5.7-2.8,8.6c-2.8-3.3-5-6.9-6.8-10.8C16.8,97.5,32.3,86.4,50.1,85.6z M34.7,137.6c-5.4-2.2-10.2-5.3-14.3-9.2
	c0.2-2,0.7-4,1.3-5.9l7,8.2c2.9,3.4,6.2,6.1,9.9,8.3C37.2,138.6,36,138.1,34.7,137.6z M69.9,137.4c-2.9,1.2-5.9,2.2-9,2.8
	c-11,0.9-22-3.4-29.3-12l-8.4-9.9c0.1-0.1,0.1-0.2,0.2-0.4c1.2-2.7,2.8-5.1,4.6-7.4l6.8,7.3c9.7,10.4,23.3,16.1,37.2,16.1
	c1.7,0,3.4-0.1,5.1-0.3C74.8,135,72.4,136.3,69.9,137.4z M85,127c-0.4,0.4-0.8,0.8-1.3,1.2c-16.5,4.4-34.4-0.7-46-13.3l-7-7.6
	c2.5-2.5,5.3-4.6,8.3-6.2l4.8,4.6c9.4,8.9,21.6,13.5,33.9,13.5c4.9,0,9.8-0.7,14.6-2.2C90.4,120.7,87.9,124,85,127z"/>
</svg>
