<?xml version="1.0" encoding="utf-8"?>
<!-- Generator: Adobe Illustrator 21.1.0, SVG Export Plug-In . SVG Version: 6.00 Build 0)  -->
<svg version="1.1" id="Calque_1" xmlns="http://www.w3.org/2000/svg" xmlns:xlink="http://www.w3.org/1999/xlink" x="0px" y="0px"
	 viewBox="0 0 104 153" style="enable-background:new 0 0 104 153;" xml:space="preserve">
<style type="text/css">
	.st0{fill:#68A5B3;}
</style>
<g>
	<path class="st0" d="M15.9,11.1c0.9,1.9,1.4,3.5,3.2,2.7l2.6-1.2L38.3,49c2.2-0.7,4.5-1.2,6.8-1.5L27.9,9.7l2.6-1.2
		c1.9-0.9,1-2.3,0.1-4.2l0-0.1c-0.9-1.9-1.4-3.5-3.2-2.7L16,6.8C14.1,7.7,15,9.1,15.9,11.1L15.9,11.1z"/>
	<path class="st0" d="M73.6,8.6l2.6,1.2L58.9,47.5c2.3,0.3,4.6,0.8,6.8,1.5l16.6-36.4l2.6,1.2c1.9,0.9,2.4-0.8,3.2-2.7l0-0.1
		C89,9.1,89.9,7.7,88,6.8L76.7,1.7c-1.9-0.9-2.4,0.8-3.2,2.7l0,0.1C72.6,6.3,71.7,7.7,73.6,8.6z"/>
	<path class="st0" d="M83.4,131.7c-1.8,1.5-3.6,2.9-5.6,4.1l4.1,9l5.8,6.4c0.6,0.6,1.5,0.2,1.4-0.6l-1-8.6L83.4,131.7z"/>
	<path class="st0" d="M20.6,131.7L15.9,142l-1,8.6c-0.1,0.9,0.8,1.3,1.4,0.6l5.8-6.4l4.1-9C24.2,134.6,22.4,133.2,20.6,131.7z"/>
</g>
<path class="st0" d="M98.9,74.5c-2.7-6.3-6.5-12-11.4-16.7c-4.7-4.6-10.2-8.2-16.4-10.7c-6.2-2.5-12.6-3.7-19.2-3.7l0,0
	c-6.8,0-13.5,1.4-19.9,4c-6.3,2.7-12,6.5-16.7,11.4C10.7,63.5,7.1,69,4.6,75.2c-2.5,6.2-3.7,12.6-3.7,19.2c0,6.8,1.4,13.5,4,19.8
	c2.7,6.3,6.5,12,11.4,16.7c4.7,4.6,10.2,8.2,16.4,10.7c6.2,2.6,12.6,3.8,19.2,3.8l0,0c6.8,0,13.5-1.4,19.8-4
	c6.3-2.7,12-6.5,16.7-11.4c4.6-4.7,8.2-10.2,10.7-16.4c2.6-6.2,3.8-12.6,3.8-19.2C102.9,87.5,101.5,80.9,98.9,74.5z M94.7,111.4
	c-16.5,6.6-35.2,3.2-48.2-9.1l-3.7-3.5c2.5-1,5.1-1.7,7.8-2.1c0.2,0,0.5-0.1,0.7-0.1c0,0,0,0,0.1,0c2.5,2,5.2,3.6,8.1,4.9
	c1.1,0.5,2.2,1,3.4,1.4c0.1,0,0.2,0.1,0.3,0.1c2.9,1,5.9,1.7,9,2c1.4,0.1,2.7,0.2,4.1,0.2l0,0c0.1,0,0.1,0,0.2,0
	c2.3,0,4.7-0.2,6.9-0.6c1.8-0.3,3.5-0.8,5.3-1.3c0.3-0.1,0.7-0.2,1-0.3c2.9-1,5.6-2.4,8.2-4C97.3,103.1,96.3,107.3,94.7,111.4z
	 M8,108.1c-1.3-4.1-2-8.3-2.1-12.6c8.3-14.9,24.4-24.2,41.6-23.9h2c1,3,1.7,6.1,1.9,9.3L49.9,81C31.8,81.9,16,92.3,8,108.1z M9,77.9
	c6.8-11.7,19.8-18.5,33.4-17.1l1.2,0.1c1.7,2.1,3.1,4.3,4.2,6.7h-0.2c-16.2-0.3-31.5,7.3-41.1,19.9C6.9,84.2,7.8,81,9,77.9z
	 M94.3,76.5c2.4,5.6,3.6,11.4,3.6,17.4c-2.1,1.6-4.3,2.9-6.6,4c3.1-7.1,3.9-14.9,2.6-22.3C94,75.8,94.1,76.1,94.3,76.5z M81.4,59.1
	c9.9,10.8,11.8,26.7,4.9,39.7l-0.5,1c-2.5,0.7-5,1.1-7.6,1.2l0.1-0.2c6.6-14.7,5.6-31.8-2.2-45.6C77.9,56.4,79.7,57.7,81.4,59.1z
	 M68.8,51.6c10.5,13.5,12.8,32,5.8,47.6l-0.8,1.8c-3.2-0.2-6.3-0.8-9.3-1.9l0.5-1.4c6.3-16.9,2.9-35.6-8.6-49.1
	C60.7,49,64.8,50,68.8,51.6z M50.8,48.4C63.4,61,67.5,79.6,61.3,96.3l-0.5,1.3c-2.3-1.1-4.5-2.4-6.6-4c0.8-2.9,1.2-5.9,1.3-8.9
	c0-1.2,0-2.4,0-3.7c0-0.1,0-0.2,0-0.3c-0.2-3.1-0.8-6.1-1.7-9c-0.4-1.3-0.9-2.6-1.4-3.9c0-0.1-0.1-0.1-0.1-0.2
	c-0.9-2.2-2-4.2-3.3-6.2c-1-1.5-2.1-3-3.3-4.4c-0.2-0.2-0.4-0.5-0.6-0.7c-2.1-2.3-4.3-4.2-6.8-6C42.3,49.2,46.5,48.5,50.8,48.4z
	 M33.4,52.3c2.2,1.3,4.2,2.7,6.1,4.4c-7.3-0.1-14.3,1.8-20.4,5.4C23.2,57.9,28,54.6,33.4,52.3z M50,85l1.4-0.1
	c-0.1,2.6-0.5,5.1-1.1,7.6c-0.1,0-0.3,0-0.4,0.1c-4,0.6-7.9,1.8-11.5,3.6l0,0h-0.1c-4.1,2-7.8,4.7-11,8c-0.2,0.3-0.5,0.5-0.7,0.8
	c-0.1,0.1-0.1,0.1-0.2,0.2c-0.2,0.1-0.3,0.3-0.4,0.5c-2.6,2.9-4.7,6.2-6.4,9.8c-1.3,2.8-2.2,5.7-2.8,8.6c-2.8-3.3-5-6.9-6.8-10.8
	C16.7,96.9,32.2,85.8,50,85z M34.6,137c-5.4-2.2-10.2-5.3-14.3-9.2c0.2-2,0.7-4,1.3-5.9l7,8.2c2.9,3.4,6.2,6.1,9.9,8.3
	C37.1,138,35.9,137.5,34.6,137z M69.8,136.8c-2.9,1.2-5.9,2.2-9,2.8c-11,0.9-22-3.4-29.3-12l-8.4-9.9c0.1-0.1,0.1-0.2,0.2-0.4
	c1.2-2.7,2.8-5.1,4.6-7.4l6.8,7.3c9.7,10.4,23.3,16.1,37.2,16.1c1.7,0,3.4-0.1,5.1-0.3C74.7,134.4,72.3,135.7,69.8,136.8z
	 M84.9,126.4c-0.4,0.4-0.8,0.8-1.3,1.2c-16.5,4.4-34.4-0.7-46-13.3l-7-7.6c2.5-2.5,5.3-4.6,8.3-6.2l4.8,4.6
	c9.4,8.9,21.6,13.5,33.9,13.5c4.9,0,9.8-0.7,14.6-2.2C90.3,120.1,87.8,123.4,84.9,126.4z"/>
</svg>
