<?xml version="1.0" encoding="utf-8"?>
<!-- Generator: Adobe Illustrator 21.1.0, SVG Export Plug-In . SVG Version: 6.00 Build 0)  -->
<svg version="1.1" xmlns="http://www.w3.org/2000/svg" xmlns:xlink="http://www.w3.org/1999/xlink" x="0px" y="0px"
	 viewBox="0 0 384.3 622.9" style="enable-background:new 0 0 384.3 622.9;" xml:space="preserve">
<style type="text/css">
	.st0{fill:#D3F0EC;}
	.st1{fill-rule:evenodd;clip-rule:evenodd;fill:#D0ECEF;}
	.st2{fill:#C1E0D7;}
	.st3{fill:#B2D1CC;}
	.st4{fill:#A5CEC1;}
	.st5{fill:#C1D2C8;}
	.st6{fill:#97BFB5;}
	.st7{fill:#FEFEFC;}
	.st8{fill:#FFFFFF;}
	.st9{fill:#B8D8CD;}
</style>
<g id="BACKGROUND">
</g>
<g id="OBJECTS">
	<g>
		<path class="st0" d="M384.5,454.4c0,0-1.6,0-3.6,0c-2,0-2.8-1.4-1.8-3.2s2.6-4.6,3.6-6.3c1-1.7,1.8-3.2,1.8-3.2"/>
	</g>
	<g>
		<path class="st0" d="M384.5,461.6c0,0-2,0-4.4,0c-2.4,0-3.4-1.7-2.2-3.8c1.2-2.1,3.2-5.5,4.4-7.6c1.2-2.1,2.2-3.8,2.2-3.8"/>
	</g>
	<rect x="0" class="st1" width="384.3" height="588.8"/>
	<path class="st2" d="M384.3,464c-10.2-7.6-22.9-12.1-36.6-12.1c-7,0-13.8,1.2-20.1,3.4c-24.1,8.3-41.5,31.2-41.5,58.2h98.1V464z"/>
	<path class="st2" d="M384.3,439.6c-12.5-11.6-29.2-18.7-47.6-18.7c-8,0-15.6,1.4-22.8,3.8c-27.3,9.4-47,35.4-47,65.9
		c0,7.4,1.2,14.6,3.3,21.3H320h64.4V439.6z"/>
	<path class="st2" d="M155.6,417.2c-10.8-3.7-22.4-5.7-34.4-5.7c-32.5,0-61.5,14.5-81.2,37.3C25.3,466,15.9,487.9,14.5,512h99.7
		h30.4c-5-11.6-7.8-24.4-7.8-37.9C136.8,452.8,143.8,433.1,155.6,417.2z"/>
	<g>
		<g>
			<path class="st0" d="M84.3,443.3c0,0-2.3,0-5.1,0c-2.8,0-4-2-2.6-4.4c1.4-2.4,3.7-6.4,5.1-8.9c1.4-2.4,2.6-4.4,2.6-4.4"/>
		</g>
		<g>
			<path class="st3" d="M84.3,443.3c0,0,2.3,0,5.1,0c2.8,0,4-2,2.6-4.4c-1.4-2.4-3.7-6.4-5.1-8.9c-1.4-2.4-2.6-4.4-2.6-4.4"/>
		</g>
		<g>
			<path class="st0" d="M84.3,453.5c0,0-2.8,0-6.1,0c-3.4,0-4.8-2.4-3.1-5.3c1.7-2.9,4.4-7.7,6.1-10.6c1.7-2.9,3.1-5.3,3.1-5.3"/>
		</g>
		<g>
			<path class="st3" d="M84.3,453.5c0,0,2.8,0,6.1,0c3.4,0,4.8-2.4,3.1-5.3c-1.7-2.9-4.4-7.7-6.1-10.6c-1.7-2.9-3.1-5.3-3.1-5.3"/>
		</g>
		<g>
			<path class="st0" d="M84.3,464.5c0,0-3.4,0-7.5,0c-4.1,0-5.8-2.9-3.8-6.5c2.1-3.6,5.4-9.4,7.5-13c2.1-3.6,3.8-6.5,3.8-6.5"/>
		</g>
		<g>
			<path class="st3" d="M84.3,464.5c0,0,3.4,0,7.5,0c4.1,0,5.8-2.9,3.8-6.5c-2.1-3.6-5.4-9.4-7.5-13c-2.1-3.6-3.8-6.5-3.8-6.5"/>
		</g>
	</g>
	<g>
		<g>
			<path class="st0" d="M123.1,469.1c0,0-3,0-6.6,0c-3.6,0-5.1-2.6-3.3-5.7c1.8-3.1,4.8-8.3,6.6-11.4c1.8-3.1,3.3-5.7,3.3-5.7"/>
		</g>
		<g>
			<path class="st3" d="M123.2,469.1c0,0,3,0,6.6,0c3.6,0,5.1-2.6,3.3-5.7c-1.8-3.1-4.8-8.3-6.6-11.4c-1.8-3.1-3.3-5.7-3.3-5.7"/>
		</g>
		<g>
			<path class="st0" d="M123.2,482.1c0,0-3.5,0-7.9,0c-4.3,0-6.1-3.1-4-6.8c2.1-3.8,5.6-9.9,7.8-13.6c2.2-3.8,3.9-6.8,3.9-6.8"/>
		</g>
		<g>
			<path class="st3" d="M123.2,482.1c0,0,3.5,0,7.9,0c4.3,0,6.1-3.1,3.9-6.8c-2.2-3.8-5.7-9.9-7.9-13.6c-2.2-3.8-3.9-6.8-3.9-6.8"/>
		</g>
		<g>
			<path class="st0" d="M123.1,496.3c0,0-4.3,0-9.7,0c-5.3,0-7.5-3.8-4.8-8.4c2.7-4.6,7-12.1,9.7-16.7c2.7-4.6,4.8-8.4,4.8-8.4"/>
		</g>
		<g>
			<path class="st3" d="M123.2,496.3c0,0,4.3,0,9.7,0c5.3,0,7.5-3.8,4.8-8.4c-2.7-4.6-7-12.1-9.7-16.7c-2.7-4.6-4.8-8.4-4.8-8.4"/>
		</g>
	</g>
	<g>
		<g>
			<path class="st0" d="M23.1,455.1c0,0-2.2,0-4.9,0c-2.7,0-3.8-1.9-2.4-4.2c1.3-2.3,3.5-6.1,4.9-8.4c1.3-2.3,2.4-4.2,2.4-4.2"/>
		</g>
		<g>
			<path class="st3" d="M23.1,455.1c0,0,2.2,0,4.9,0c2.7,0,3.8-1.9,2.4-4.2c-1.3-2.3-3.5-6.1-4.9-8.4c-1.3-2.3-2.4-4.2-2.4-4.2"/>
		</g>
		<g>
			<path class="st0" d="M23.1,464.8c0,0-2.6,0-5.8,0s-4.5-2.3-2.9-5.1c1.6-2.8,4.2-7.3,5.8-10.1s2.9-5.1,2.9-5.1"/>
		</g>
		<g>
			<path class="st3" d="M23.1,464.8c0,0,2.6,0,5.8,0c3.2,0,4.5-2.3,2.9-5.1c-1.6-2.8-4.2-7.3-5.8-10.1s-2.9-5.1-2.9-5.1"/>
		</g>
		<g>
			<path class="st0" d="M23.1,475.3c0,0-3.2,0-7.1,0s-5.5-2.8-3.6-6.2c2-3.4,5.2-9,7.1-12.4c2-3.4,3.6-6.2,3.6-6.2"/>
		</g>
		<g>
			<path class="st3" d="M23.1,475.3c0,0,3.2,0,7.1,0s5.5-2.8,3.6-6.2c-2-3.4-5.2-9-7.1-12.4c-2-3.4-3.6-6.2-3.6-6.2"/>
		</g>
	</g>
	<path class="st2" d="M314,424.7c-16.7-27.6-47.1-46.1-81.7-46.1c-31.4,0-59.3,15.2-76.7,38.6c-11.8,15.9-18.8,35.6-18.8,56.9
		c0,13.5,2.8,26.2,7.8,37.9h83.3h42.5c-2.2-6.7-3.3-13.9-3.3-21.3C267,460.1,286.7,434.1,314,424.7z"/>
	<g>
		<g>
			<path class="st0" d="M302.7,426.8c0,0-2.2,0-4.9,0c-2.7,0-3.8-1.9-2.4-4.2c1.3-2.3,3.5-6.1,4.9-8.4c1.3-2.3,2.4-4.2,2.4-4.2"/>
		</g>
		<g>
			<path class="st3" d="M302.7,426.8c0,0,2.2,0,4.9,0c2.7,0,3.8-1.9,2.4-4.2c-1.3-2.3-3.5-6.1-4.9-8.4c-1.3-2.3-2.4-4.2-2.4-4.2"/>
		</g>
		<g>
			<path class="st0" d="M302.7,436.5c0,0-2.6,0-5.8,0c-3.2,0-4.5-2.3-2.9-5.1c1.6-2.8,4.2-7.3,5.8-10.1c1.6-2.8,2.9-5.1,2.9-5.1"/>
		</g>
		<g>
			<path class="st3" d="M302.7,436.5c0,0,2.6,0,5.8,0c3.2,0,4.5-2.3,2.9-5.1c-1.6-2.8-4.2-7.3-5.8-10.1c-1.6-2.8-2.9-5.1-2.9-5.1"/>
		</g>
		<g>
			<path class="st0" d="M302.7,446.9c0,0-3.2,0-7.1,0c-3.9,0-5.5-2.8-3.6-6.2c2-3.4,5.2-9,7.2-12.4c2-3.4,3.6-6.2,3.6-6.2"/>
		</g>
		<g>
			<path class="st3" d="M302.7,446.9c0,0,3.2,0,7.1,0c3.9,0,5.5-2.8,3.6-6.2c-2-3.4-5.2-9-7.2-12.4c-2-3.4-3.6-6.2-3.6-6.2"/>
		</g>
	</g>
	<g>
		<g>
			<path class="st0" d="M272,416.8c0,0-2.7,0-6,0c-3.3,0-4.6-2.3-3-5.2c1.6-2.8,4.3-7.5,6-10.3c1.6-2.8,3-5.2,3-5.2"/>
		</g>
		<g>
			<path class="st3" d="M272,416.8c0,0,2.7,0,6,0c3.3,0,4.6-2.3,3-5.2c-1.6-2.8-4.3-7.5-6-10.3c-1.6-2.8-3-5.2-3-5.2"/>
		</g>
		<g>
			<path class="st0" d="M272,428.6c0,0-3.2,0-7.1,0c-3.9,0-5.5-2.8-3.6-6.2c2-3.4,5.2-8.9,7.1-12.3c2-3.4,3.6-6.2,3.6-6.2"/>
		</g>
		<g>
			<path class="st3" d="M272,428.6c0,0,3.2,0,7.1,0c3.9,0,5.5-2.8,3.6-6.2c-2-3.4-5.2-8.9-7.1-12.3c-2-3.4-3.6-6.2-3.6-6.2"/>
		</g>
		<g>
			<path class="st0" d="M272,441.4c0,0-3.9,0-8.7,0s-6.8-3.4-4.4-7.6c2.4-4.2,6.3-11,8.7-15.1c2.4-4.2,4.4-7.6,4.4-7.6"/>
		</g>
		<g>
			<path class="st3" d="M272,441.4c0,0,3.9,0,8.7,0s6.8-3.4,4.4-7.6c-2.4-4.2-6.3-11-8.7-15.1c-2.4-4.2-4.4-7.6-4.4-7.6"/>
		</g>
	</g>
	<g>
		<g>
			<path class="st0" d="M289.9,428.5c0,0-1.2,0-2.8,0c-1.5,0-2.1-1.1-1.4-2.4c0.8-1.3,2-3.5,2.8-4.8c0.8-1.3,1.4-2.4,1.4-2.4"/>
		</g>
		<g>
			<path class="st3" d="M289.9,428.5c0,0,1.2,0,2.8,0c1.5,0,2.1-1.1,1.4-2.4c-0.8-1.3-2-3.5-2.8-4.8c-0.8-1.3-1.4-2.4-1.4-2.4"/>
		</g>
		<g>
			<path class="st0" d="M289.9,434c0,0-1.5,0-3.3,0c-1.8,0-2.6-1.3-1.7-2.9c0.9-1.6,2.4-4.2,3.3-5.7c0.9-1.6,1.7-2.9,1.7-2.9"/>
		</g>
		<g>
			<path class="st3" d="M289.9,434c0,0,1.5,0,3.3,0c1.8,0,2.6-1.3,1.7-2.9c-0.9-1.6-2.4-4.2-3.3-5.7c-0.9-1.6-1.7-2.9-1.7-2.9"/>
		</g>
		<g>
			<path class="st0" d="M289.9,440c0,0-1.8,0-4.1,0c-2.2,0-3.1-1.6-2-3.5c1.1-1.9,2.9-5.1,4.1-7c1.1-1.9,2-3.5,2-3.5"/>
		</g>
		<g>
			<path class="st3" d="M289.9,440c0,0,1.8,0,4.1,0c2.2,0,3.1-1.6,2-3.5c-1.1-1.9-2.9-5.1-4.1-7c-1.1-1.9-2-3.5-2-3.5"/>
		</g>
	</g>
	<g>
		<g>
			<path class="st0" d="M69.9,442.6c0,0-1.2,0-2.8,0c-1.5,0-2.1-1.1-1.4-2.4c0.8-1.3,2-3.5,2.8-4.8c0.8-1.3,1.4-2.4,1.4-2.4"/>
		</g>
		<g>
			<path class="st3" d="M69.9,442.6c0,0,1.2,0,2.8,0c1.5,0,2.1-1.1,1.4-2.4c-0.8-1.3-2-3.5-2.8-4.8c-0.8-1.3-1.4-2.4-1.4-2.4"/>
		</g>
		<g>
			<path class="st0" d="M69.9,448.1c0,0-1.5,0-3.3,0c-1.8,0-2.6-1.3-1.7-2.9s2.4-4.2,3.3-5.7c0.9-1.6,1.7-2.9,1.7-2.9"/>
		</g>
		<g>
			<path class="st3" d="M69.9,448.1c0,0,1.5,0,3.3,0c1.8,0,2.6-1.3,1.7-2.9s-2.4-4.2-3.3-5.7c-0.9-1.6-1.7-2.9-1.7-2.9"/>
		</g>
		<g>
			<path class="st0" d="M69.9,454.1c0,0-1.8,0-4.1,0c-2.2,0-3.1-1.6-2-3.5c1.1-1.9,2.9-5.1,4.1-7c1.1-1.9,2-3.5,2-3.5"/>
		</g>
		<g>
			<path class="st3" d="M69.9,454.1c0,0,1.8,0,4.1,0c2.2,0,3.1-1.6,2-3.5c-1.1-1.9-2.9-5.1-4.1-7c-1.1-1.9-2-3.5-2-3.5"/>
		</g>
	</g>
	<path class="st2" d="M8.4,513.5c0-27,17.3-49.9,41.5-58.2c6.3-2.2,13.1-3.4,20.1-3.4c34,0,61.6,27.6,61.6,61.6H8.4z"/>
	<polygon class="st4" points="78.3,468.8 66.9,447.3 50.1,447.3 50.1,468.8 	"/>
	<polygon class="st5" points="66.9,447.3 50.1,415.6 50.1,447.3 	"/>
	<polygon class="st6" points="101.5,512.4 78.3,468.8 50.1,468.8 50.1,512.4 	"/>
	<polygon class="st7" points="33.3,447.3 50.1,415.6 50.1,447.3 	"/>
	<g>
		<path class="st8" d="M33.3,447.3c1.4,0,1.4,3.2,2.8,3.2c1.4,0,1.4-3.2,2.8-3.2c1.4,0,1.4,3.2,2.8,3.2c1.4,0,1.4-3.2,2.8-3.2
			c1.4,0,1.4,3.2,2.8,3.2c1.4,0,1.4-3.2,2.8-3.2"/>
	</g>
	<g>
		<path class="st5" d="M50.1,447.3c1.4,0,1.4,3.2,2.8,3.2c1.4,0,1.4-3.2,2.8-3.2c1.4,0,1.4,3.2,2.8,3.2c1.4,0,1.4-3.2,2.8-3.2
			c1.4,0,1.4,3.2,2.8,3.2c1.4,0,1.4-3.2,2.8-3.2"/>
	</g>
	<g>
		<path class="st4" d="M50.1,468.6c2.3,0,2.3,5.3,4.7,5.3c2.3,0,2.3-5.3,4.7-5.3c2.3,0,2.3,5.3,4.7,5.3c2.3,0,2.3-5.3,4.7-5.3
			c2.3,0,2.3,5.3,4.7,5.3c2.3,0,2.3-5.3,4.7-5.3"/>
	</g>
	<circle class="st8" cx="99.7" cy="509.3" r="9.1"/>
	<circle class="st7" cx="13.9" cy="509.3" r="9.1"/>
	<circle class="st7" cx="28.9" cy="509.3" r="9.1"/>
	<g>
		<g>
			<path class="st0" d="M138.2,486.3c0,0-2.2,0-4.9,0c-2.7,0-3.8-1.9-2.4-4.2c1.3-2.3,3.5-6.1,4.9-8.4c1.3-2.3,2.4-4.2,2.4-4.2"/>
		</g>
		<g>
			<path class="st3" d="M138.2,486.3c0,0,2.2,0,4.9,0c2.7,0,3.8-1.9,2.4-4.2c-1.3-2.3-3.5-6.1-4.9-8.4c-1.3-2.3-2.4-4.2-2.4-4.2"/>
		</g>
		<g>
			<path class="st0" d="M138.2,496c0,0-2.6,0-5.8,0c-3.2,0-4.5-2.3-2.9-5.1c1.6-2.8,4.2-7.3,5.8-10.1c1.6-2.8,2.9-5.1,2.9-5.1"/>
		</g>
		<g>
			<path class="st3" d="M138.2,496c0,0,2.6,0,5.8,0c3.2,0,4.5-2.3,2.9-5.1c-1.6-2.8-4.2-7.3-5.8-10.1s-2.9-5.1-2.9-5.1"/>
		</g>
		<g>
			<path class="st0" d="M138.2,506.5c0,0-3.2,0-7.1,0c-3.9,0-5.5-2.8-3.6-6.2c2-3.4,5.2-9,7.1-12.4c2-3.4,3.6-6.2,3.6-6.2"/>
		</g>
		<g>
			<path class="st3" d="M138.2,506.5c0,0,3.2,0,7.1,0c3.9,0,5.5-2.8,3.6-6.2c-2-3.4-5.2-9-7.1-12.4c-2-3.4-3.6-6.2-3.6-6.2"/>
		</g>
	</g>
	<g>
		<path class="st7" d="M242.3,274.8c-0.8,0-1.5,0.1-2.2,0.1c0-0.4,0.1-0.9,0.1-1.3c0.1-7.8-6.2-14.2-14-14.3
			c-7.8-0.1-14.2,6.2-14.3,14c0,0.5,0,1,0.1,1.5c-7.2,1.5-12.7,7.8-12.8,15.5l27,0.3l4.9,0.1l27,0.3
			C258.2,282.2,251.2,274.9,242.3,274.8z"/>
		<path class="st7" d="M315.8,340.7c-0.5,0-1,0-1.5,0.1c0-0.3,0.1-0.6,0.1-0.9c0.1-5.2-4.1-9.4-9.2-9.5c-5.2-0.1-9.4,4.1-9.5,9.2
			c0,0.3,0,0.7,0,1c-4.8,1-8.4,5.2-8.4,10.2l17.8,0.2l3.3,0l17.8,0.2C326.3,345.5,321.6,340.7,315.8,340.7z"/>
		<path class="st7" d="M48.5,337.4c0-8.8,7.2-16,16-16c3.3,0,6.5,1,9,2.8c0-0.1,0-0.3,0-0.4c0-7.8,6.3-14.2,14.2-14.2
			c5.1,0,9.6,2.7,12.1,6.8c1-0.4,2-0.6,3.1-0.6c4.7,0,8.5,3.8,8.5,8.5c0,0.8-0.1,1.6-0.3,2.3c5.3,2.6,9,8,9,14.4h-27H88h-7.9H48.5
			V337.4z"/>
	</g>
	<g>
		<g>
			<path class="st0" d="M286.6,437.4c0,0-3.5,0-7.7,0c-4.2,0-6-3-3.9-6.7c2.1-3.7,5.6-9.7,7.7-13.4s3.9-6.7,3.9-6.7"/>
		</g>
		<g>
			<path class="st3" d="M286.6,437.4c0,0,3.5,0,7.7,0s6-3,3.9-6.7c-2.1-3.7-5.6-9.7-7.7-13.4s-3.9-6.7-3.9-6.7"/>
		</g>
		<g>
			<path class="st0" d="M286.6,452.8c0,0-4.2,0-9.2,0c-5.1,0-7.2-3.6-4.6-8s6.7-11.6,9.2-16c2.5-4.4,4.6-8,4.6-8"/>
		</g>
		<g>
			<path class="st3" d="M286.6,452.8c0,0,4.2,0,9.2,0c5.1,0,7.2-3.6,4.6-8s-6.7-11.6-9.2-16c-2.5-4.4-4.6-8-4.6-8"/>
		</g>
		<g>
			<path class="st0" d="M286.6,469.3c0,0-5.1,0-11.3,0c-6.2,0-8.8-4.4-5.7-9.8c3.1-5.4,8.2-14.2,11.3-19.6s5.7-9.8,5.7-9.8"/>
		</g>
		<g>
			<path class="st3" d="M286.6,469.3c0,0,5.1,0,11.3,0s8.8-4.4,5.7-9.8c-3.1-5.4-8.2-14.2-11.3-19.6c-3.1-5.4-5.7-9.8-5.7-9.8"/>
		</g>
	</g>
	<polygon class="st4" points="274.9,439.4 256,403.7 228.1,403.7 228.1,439.4 	"/>
	<polygon class="st5" points="256,403.7 228.1,351 228.1,403.7 	"/>
	<polygon class="st6" points="313.4,512 274.9,439.4 228.1,439.4 228.1,512 	"/>
	<polygon class="st9" points="181.2,439.4 200.1,403.7 228.1,403.7 228.1,439.4 	"/>
	<polygon class="st7" points="200.1,403.7 228.1,351 228.1,403.7 	"/>
	<polygon class="st4" points="142.7,512 181.2,439.4 228.1,439.4 228.1,512 	"/>
	<g>
		<path class="st8" d="M200.1,403.6c2.3,0,2.3,5.3,4.7,5.3c2.3,0,2.3-5.3,4.7-5.3c2.3,0,2.3,5.3,4.7,5.3c2.3,0,2.3-5.3,4.7-5.3
			c2.3,0,2.3,5.3,4.7,5.3c2.3,0,2.3-5.3,4.7-5.3"/>
	</g>
	<g>
		<path class="st5" d="M228.1,403.6c2.3,0,2.3,5.3,4.7,5.3c2.3,0,2.3-5.3,4.7-5.3s2.3,5.3,4.7,5.3c2.3,0,2.3-5.3,4.7-5.3
			c2.3,0,2.3,5.3,4.7,5.3c2.3,0,2.3-5.3,4.7-5.3"/>
	</g>
	<g>
		<path class="st9" d="M181.3,439.1c3.9,0,3.9,8.9,7.8,8.9c3.9,0,3.9-8.9,7.8-8.9c3.9,0,3.9,8.9,7.8,8.9c3.9,0,3.9-8.9,7.8-8.9
			c3.9,0,3.9,8.9,7.8,8.9s3.9-8.9,7.8-8.9"/>
	</g>
	<g>
		<path class="st4" d="M228.1,439.1c3.9,0,3.9,8.9,7.8,8.9c3.9,0,3.9-8.9,7.8-8.9c3.9,0,3.9,8.9,7.8,8.9c3.9,0,3.9-8.9,7.8-8.9
			c3.9,0,3.9,8.9,7.8,8.9c3.9,0,3.9-8.9,7.8-8.9"/>
	</g>
	<polygon class="st4" points="365.1,458.6 351.1,432.1 330.3,432.1 330.3,458.6 	"/>
	<g>
		<path class="st8" d="M309.6,432c1.7,0,1.7,3.9,3.5,3.9c1.7,0,1.7-3.9,3.5-3.9c1.7,0,1.7,3.9,3.5,3.9c1.7,0,1.7-3.9,3.5-3.9
			c1.7,0,1.7,3.9,3.5,3.9c1.7,0,1.7-3.9,3.5-3.9"/>
	</g>
	<g>
		<path class="st5" d="M330.3,432c1.7,0,1.7,3.9,3.5,3.9c1.7,0,1.7-3.9,3.5-3.9s1.7,3.9,3.5,3.9c1.7,0,1.7-3.9,3.5-3.9
			c1.7,0,1.7,3.9,3.5,3.9c1.7,0,1.7-3.9,3.5-3.9"/>
	</g>
	<circle class="st8" cx="223.2" cy="509.3" r="9.1"/>
	<g>
		<g>
			<path class="st0" d="M165.9,484.8c0,0-3.1,0-6.9,0c-3.8,0-5.3-2.7-3.4-6c1.9-3.3,5-8.7,6.9-11.9c1.9-3.3,3.4-6,3.4-6"/>
		</g>
		<g>
			<path class="st3" d="M165.9,484.8c0,0,3.1,0,6.9,0c3.8,0,5.3-2.7,3.4-6c-1.9-3.3-5-8.7-6.9-11.9c-1.9-3.3-3.4-6-3.4-6"/>
		</g>
		<g>
			<path class="st0" d="M165.9,498.5c0,0-3.7,0-8.3,0c-4.5,0-6.4-3.2-4.1-7.1c2.3-3.9,6-10.4,8.3-14.3c2.3-3.9,4.1-7.1,4.1-7.1"/>
		</g>
		<g>
			<path class="st3" d="M165.9,498.5c0,0,3.7,0,8.3,0c4.5,0,6.4-3.2,4.1-7.1c-2.3-3.9-6-10.4-8.3-14.3c-2.3-3.9-4.1-7.1-4.1-7.1"/>
		</g>
		<g>
			<path class="st0" d="M165.9,513.3c0,0-4.6,0-10.1,0c-5.6,0-7.8-3.9-5.1-8.8c2.8-4.8,7.3-12.7,10.1-17.5c2.8-4.8,5.1-8.8,5.1-8.8"
				/>
		</g>
		<g>
			<path class="st3" d="M165.9,513.3c0,0,4.6,0,10.1,0c5.6,0,7.8-3.9,5.1-8.8c-2.8-4.8-7.3-12.7-10.1-17.5c-2.8-4.8-5.1-8.8-5.1-8.8
				"/>
		</g>
	</g>
	<g>
		<g>
			<path class="st0" d="M262.6,493.2c0,0-2.2,0-4.9,0c-2.7,0-3.8-1.9-2.4-4.2c1.3-2.3,3.5-6.1,4.9-8.4c1.3-2.3,2.4-4.2,2.4-4.2"/>
		</g>
		<g>
			<path class="st3" d="M262.6,493.2c0,0,2.2,0,4.9,0c2.7,0,3.8-1.9,2.4-4.2c-1.3-2.3-3.5-6.1-4.9-8.4c-1.3-2.3-2.4-4.2-2.4-4.2"/>
		</g>
		<g>
			<path class="st0" d="M262.6,502.8c0,0-2.6,0-5.8,0c-3.2,0-4.5-2.3-2.9-5.1c1.6-2.8,4.2-7.3,5.8-10.1c1.6-2.8,2.9-5.1,2.9-5.1"/>
		</g>
		<g>
			<path class="st3" d="M262.6,502.8c0,0,2.6,0,5.8,0c3.2,0,4.5-2.3,2.9-5.1c-1.6-2.8-4.2-7.3-5.8-10.1c-1.6-2.8-2.9-5.1-2.9-5.1"/>
		</g>
		<g>
			<path class="st0" d="M262.6,513.3c0,0-3.2,0-7.1,0c-3.9,0-5.5-2.8-3.6-6.2c2-3.4,5.2-9,7.2-12.4c2-3.4,3.6-6.2,3.6-6.2"/>
		</g>
		<g>
			<path class="st3" d="M262.6,513.3c0,0,3.2,0,7.1,0c3.9,0,5.5-2.8,3.6-6.2c-2-3.4-5.2-9-7.2-12.4c-2-3.4-3.6-6.2-3.6-6.2"/>
		</g>
	</g>
	<circle class="st8" cx="162.2" cy="509.3" r="9.1"/>
	<circle class="st8" cx="147.2" cy="503.2" r="15.2"/>
	<path class="st2" d="M0,464.9v47h14.5c1.4-24,10.8-45.9,25.5-63.1C24.8,449.9,11,455.7,0,464.9z"/>
	<polygon class="st6" points="384.3,494.8 365.1,458.6 330.3,458.6 330.3,512.4 384.3,512.4 	"/>
	<polygon class="st5" points="351.1,432.1 330.3,393 330.3,432.1 	"/>
	<polygon class="st9" points="295.6,458.6 309.6,432.1 330.3,432.1 330.3,458.6 	"/>
	<polygon class="st7" points="309.6,432.1 330.3,393 330.3,432.1 	"/>
	<polygon class="st4" points="267,512.4 295.6,458.6 330.3,458.6 330.3,512.4 	"/>
	<g>
		<path class="st9" d="M295.7,458.4c2.9,0,2.9,6.6,5.8,6.6c2.9,0,2.9-6.6,5.8-6.6c2.9,0,2.9,6.6,5.8,6.6c2.9,0,2.9-6.6,5.8-6.6
			c2.9,0,2.9,6.6,5.8,6.6c2.9,0,2.9-6.6,5.8-6.6"/>
	</g>
	<g>
		<path class="st4" d="M330.3,458.4c2.9,0,2.9,6.6,5.8,6.6c2.9,0,2.9-6.6,5.8-6.6c2.9,0,2.9,6.6,5.8,6.6c2.9,0,2.9-6.6,5.8-6.6
			c2.9,0,2.9,6.6,5.8,6.6c2.9,0,2.9-6.6,5.8-6.6"/>
	</g>
	<circle class="st8" cx="265.1" cy="509.3" r="9.1"/>
	<g>
		<g>
			<path class="st0" d="M372.2,498.2c0,0-1.6,0-3.6,0c-2,0-2.8-1.4-1.8-3.2c1-1.7,2.6-4.6,3.6-6.3s1.8-3.2,1.8-3.2"/>
		</g>
		<g>
			<path class="st3" d="M372.2,498.2c0,0,1.6,0,3.6,0c2,0,2.8-1.4,1.8-3.2s-2.6-4.6-3.6-6.3c-1-1.7-1.8-3.2-1.8-3.2"/>
		</g>
		<g>
			<path class="st0" d="M372.2,505.5c0,0-2,0-4.4,0c-2.4,0-3.4-1.7-2.2-3.8c1.2-2.1,3.2-5.5,4.4-7.6c1.2-2.1,2.2-3.8,2.2-3.8"/>
		</g>
		<g>
			<path class="st3" d="M372.2,505.5c0,0,2,0,4.4,0c2.4,0,3.4-1.7,2.2-3.8c-1.2-2.1-3.2-5.5-4.4-7.6c-1.2-2.1-2.2-3.8-2.2-3.8"/>
		</g>
		<g>
			<path class="st0" d="M372.2,513.3c0,0-2.4,0-5.3,0c-2.9,0-4.1-2.1-2.7-4.6c1.5-2.5,3.9-6.7,5.3-9.3c1.5-2.5,2.7-4.6,2.7-4.6"/>
		</g>
		<g>
			<path class="st3" d="M372.2,513.3c0,0,2.4,0,5.3,0s4.1-2.1,2.7-4.6c-1.5-2.5-3.9-6.7-5.3-9.3c-1.5-2.5-2.7-4.6-2.7-4.6"/>
		</g>
	</g>
	<g>
		<g>
			<path class="st0" d="M357.1,493.2c0,0-2.2,0-4.9,0c-2.7,0-3.8-1.9-2.4-4.2c1.3-2.3,3.5-6.1,4.9-8.4c1.3-2.3,2.4-4.2,2.4-4.2"/>
		</g>
		<g>
			<path class="st3" d="M357.1,493.2c0,0,2.2,0,4.9,0c2.7,0,3.8-1.9,2.4-4.2c-1.3-2.3-3.5-6.1-4.9-8.4c-1.3-2.3-2.4-4.2-2.4-4.2"/>
		</g>
		<g>
			<path class="st0" d="M357.1,502.8c0,0-2.6,0-5.8,0c-3.2,0-4.5-2.3-2.9-5.1c1.6-2.8,4.2-7.3,5.8-10.1s2.9-5.1,2.9-5.1"/>
		</g>
		<g>
			<path class="st3" d="M357.1,502.8c0,0,2.6,0,5.8,0c3.2,0,4.5-2.3,2.9-5.1c-1.6-2.8-4.2-7.3-5.8-10.1c-1.6-2.8-2.9-5.1-2.9-5.1"/>
		</g>
		<g>
			<path class="st0" d="M357.1,513.3c0,0-3.2,0-7.1,0c-3.9,0-5.5-2.8-3.6-6.2c2-3.4,5.2-9,7.2-12.4c2-3.4,3.6-6.2,3.6-6.2"/>
		</g>
		<g>
			<path class="st3" d="M357.1,513.3c0,0,3.2,0,7.1,0c3.9,0,5.5-2.8,3.6-6.2c-2-3.4-5.2-9-7.2-12.4c-2-3.4-3.6-6.2-3.6-6.2"/>
		</g>
	</g>
	<circle class="st8" cx="280.1" cy="509.3" r="9.1"/>
	<circle class="st8" cx="295.1" cy="503.2" r="15.2"/>
	<circle class="st8" cx="325.1" cy="509.3" r="9.1"/>
	<circle class="st8" cx="310.1" cy="509.3" r="9.1"/>
	<path class="st8" d="M384.3,500.2c-4.9,0.1-8.9,4.2-8.9,9.1c0,5,4,9,8.9,9.1V500.2z"/>
	<polygon class="st9" points="21.9,468.8 33.3,447.3 50.1,447.3 50.1,468.8 	"/>
	<g>
		<path class="st9" d="M22,468.6c2.3,0,2.3,5.3,4.7,5.3c2.3,0,2.3-5.3,4.7-5.3c2.3,0,2.3,5.3,4.7,5.3c2.3,0,2.3-5.3,4.7-5.3
			c2.3,0,2.3,5.3,4.7,5.3c2.3,0,2.3-5.3,4.7-5.3"/>
	</g>
	<polygon class="st4" points="21.9,468.8 0,510.2 0,512.4 50.1,512.4 50.1,468.8 	"/>
	<circle class="st8" cx="43.9" cy="503.2" r="15.2"/>
	<polygon class="st8" points="384.3,508 0,508 0,622.8 384.3,623.1 	"/>
</g>
<g id="DESIGNED_BY_FREEPIK">
</g>
</svg>
