<?xml version="1.0" encoding="utf-8"?>
<!-- Generator: Adobe Illustrator 21.1.0, SVG Export Plug-In . SVG Version: 6.00 Build 0)  -->
<svg version="1.1" xmlns="http://www.w3.org/2000/svg" xmlns:xlink="http://www.w3.org/1999/xlink" x="0px" y="0px"
	 viewBox="0 0 500 453.3" style="enable-background:new 0 0 500 453.3;" xml:space="preserve">
<style type="text/css">
	.st0{fill-rule:evenodd;clip-rule:evenodd;fill:#D0ECEF;}
	.st1{fill:#C1E0D7;}
	.st2{fill:#D3F0EC;}
	.st3{fill:#B2D1CC;}
	.st4{fill:#A5CEC1;}
	.st5{fill:#C1D2C8;}
	.st6{fill:#97BFB5;}
	.st7{fill:#B8D8CD;}
	.st8{fill:#FEFEFC;}
	.st9{fill:#FFFFFF;}
</style>
<g id="BACKGROUND">
	<rect x="-6.3" class="st0" width="512" height="453.3"/>
</g>
<g id="OBJECTS">
	<path class="st1" d="M212.1,281.8c-10.8-3.7-22.4-5.7-34.4-5.7c-32.5,0-61.5,14.5-81.2,37.3c-14.7,17.2-24.1,39.1-25.5,63.1h99.7
		h30.4c-5-11.6-7.8-24.4-7.8-37.9C193.3,317.4,200.3,297.7,212.1,281.8z"/>
	<g>
		<g>
			<path class="st2" d="M140.8,307.9c0,0-2.3,0-5.1,0c-2.8,0-4-2-2.6-4.4c1.4-2.4,3.7-6.4,5.1-8.9c1.4-2.4,2.6-4.4,2.6-4.4"/>
		</g>
		<g>
			<path class="st3" d="M140.8,307.9c0,0,2.3,0,5.1,0c2.8,0,4-2,2.6-4.4c-1.4-2.4-3.7-6.4-5.1-8.9c-1.4-2.4-2.6-4.4-2.6-4.4"/>
		</g>
		<g>
			<path class="st2" d="M140.8,318.1c0,0-2.8,0-6.1,0c-3.4,0-4.8-2.4-3.1-5.3c1.7-2.9,4.4-7.7,6.1-10.6c1.7-2.9,3.1-5.3,3.1-5.3"/>
		</g>
		<g>
			<path class="st3" d="M140.8,318.1c0,0,2.8,0,6.1,0c3.4,0,4.8-2.4,3.1-5.3c-1.7-2.9-4.4-7.7-6.1-10.6c-1.7-2.9-3.1-5.3-3.1-5.3"/>
		</g>
		<g>
			<path class="st2" d="M140.8,329.1c0,0-3.4,0-7.5,0c-4.1,0-5.8-2.9-3.8-6.5c2.1-3.6,5.4-9.4,7.5-13c2.1-3.6,3.8-6.5,3.8-6.5"/>
		</g>
		<g>
			<path class="st3" d="M140.8,329.1c0,0,3.4,0,7.5,0c4.1,0,5.8-2.9,3.8-6.5c-2.1-3.6-5.4-9.4-7.5-13c-2.1-3.6-3.8-6.5-3.8-6.5"/>
		</g>
	</g>
	<g>
		<g>
			<path class="st2" d="M179.6,333.7c0,0-3,0-6.6,0c-3.6,0-5.1-2.6-3.3-5.7c1.8-3.1,4.8-8.3,6.6-11.4c1.8-3.1,3.3-5.7,3.3-5.7"/>
		</g>
		<g>
			<path class="st3" d="M179.7,333.7c0,0,3,0,6.6,0c3.6,0,5.1-2.6,3.3-5.7c-1.8-3.1-4.8-8.3-6.6-11.4c-1.8-3.1-3.3-5.7-3.3-5.7"/>
		</g>
		<g>
			<path class="st2" d="M179.7,346.7c0,0-3.5,0-7.9,0c-4.3,0-6.1-3.1-4-6.8c2.1-3.8,5.6-9.9,7.8-13.6c2.2-3.8,3.9-6.8,3.9-6.8"/>
		</g>
		<g>
			<path class="st3" d="M179.7,346.7c0,0,3.5,0,7.9,0s6.1-3.1,3.9-6.8c-2.2-3.8-5.7-9.9-7.9-13.6c-2.2-3.8-3.9-6.8-3.9-6.8"/>
		</g>
		<g>
			<path class="st2" d="M179.6,360.9c0,0-4.3,0-9.7,0c-5.3,0-7.5-3.8-4.8-8.4c2.7-4.6,7-12.1,9.7-16.7c2.7-4.6,4.8-8.4,4.8-8.4"/>
		</g>
		<g>
			<path class="st3" d="M179.7,360.9c0,0,4.3,0,9.7,0c5.3,0,7.5-3.8,4.8-8.4c-2.7-4.6-7-12.1-9.7-16.7c-2.7-4.6-4.8-8.4-4.8-8.4"/>
		</g>
	</g>
	<path class="st1" d="M96.5,313.4c-34.2,2.3-61.6,29.2-64.7,63.1H71C72.4,352.5,81.8,330.6,96.5,313.4z"/>
	<g>
		<g>
			<path class="st2" d="M79.6,319.7c0,0-2.2,0-4.9,0c-2.7,0-3.8-1.9-2.4-4.2c1.3-2.3,3.5-6.1,4.9-8.4c1.3-2.3,2.4-4.2,2.4-4.2"/>
		</g>
		<g>
			<path class="st3" d="M79.6,319.7c0,0,2.2,0,4.9,0c2.7,0,3.8-1.9,2.4-4.2c-1.3-2.3-3.5-6.1-4.9-8.4c-1.3-2.3-2.4-4.2-2.4-4.2"/>
		</g>
		<g>
			<path class="st2" d="M79.6,329.4c0,0-2.6,0-5.8,0c-3.2,0-4.5-2.3-2.9-5.1c1.6-2.8,4.2-7.3,5.8-10.1s2.9-5.1,2.9-5.1"/>
		</g>
		<g>
			<path class="st3" d="M79.6,329.4c0,0,2.6,0,5.8,0c3.2,0,4.5-2.3,2.9-5.1s-4.2-7.3-5.8-10.1c-1.6-2.8-2.9-5.1-2.9-5.1"/>
		</g>
		<g>
			<path class="st2" d="M79.6,339.9c0,0-3.2,0-7.1,0s-5.5-2.8-3.6-6.2c2-3.4,5.2-9,7.1-12.4c2-3.4,3.6-6.2,3.6-6.2"/>
		</g>
		<g>
			<path class="st3" d="M79.6,339.9c0,0,3.2,0,7.1,0s5.5-2.8,3.6-6.2c-2-3.4-5.2-9-7.1-12.4c-2-3.4-3.6-6.2-3.6-6.2"/>
		</g>
	</g>
	<g>
		<g>
			<path class="st2" d="M64.8,345.2c0,0-3,0-6.6,0c-3.6,0-5.1-2.6-3.3-5.7c1.8-3.1,4.8-8.3,6.6-11.4c1.8-3.1,3.3-5.7,3.3-5.7"/>
		</g>
		<g>
			<path class="st3" d="M65,345.2c0,0,3,0,6.6,0c3.6,0,5.1-2.6,3.3-5.7c-1.8-3.1-4.8-8.3-6.6-11.4c-1.8-3.1-3.3-5.7-3.3-5.7"/>
		</g>
		<g>
			<path class="st2" d="M65,358.2c0,0-3.5,0-7.9,0c-4.3,0-6.1-3.1-4-6.8c2.1-3.8,5.6-9.9,7.8-13.6c2.2-3.8,3.9-6.8,3.9-6.8"/>
		</g>
		<g>
			<path class="st3" d="M65,358.2c0,0,3.5,0,7.9,0s6.1-3.1,3.9-6.8c-2.2-3.8-5.7-9.9-7.9-13.6C66.7,334,65,331,65,331"/>
		</g>
		<g>
			<path class="st2" d="M64.8,372.4c0,0-4.3,0-9.7,0s-7.5-3.8-4.8-8.4s7-12.1,9.7-16.7c2.7-4.6,4.8-8.4,4.8-8.4"/>
		</g>
		<g>
			<path class="st3" d="M65,372.4c0,0,4.3,0,9.7,0s7.5-3.8,4.8-8.4c-2.7-4.6-7-12.1-9.7-16.7c-2.7-4.6-4.8-8.4-4.8-8.4"/>
		</g>
	</g>
	<path class="st1" d="M393.3,285.4c-8,0-15.6,1.4-22.8,3.8c-27.3,9.4-47,35.4-47,65.9c0,7.4,1.2,14.6,3.3,21.3h49.6h83.2
		c2.2-6.7,3.3-13.9,3.3-21.3C463,316.7,431.8,285.4,393.3,285.4z"/>
	<path class="st1" d="M370.5,289.3c-16.7-27.6-47.1-46.1-81.7-46.1c-31.4,0-59.3,15.2-76.7,38.6c-11.8,15.9-18.8,35.6-18.8,56.9
		c0,13.5,2.8,26.2,7.8,37.9h83.3h42.5c-2.2-6.7-3.3-13.9-3.3-21.3C323.5,324.6,343.2,298.7,370.5,289.3z"/>
	<g>
		<g>
			<path class="st2" d="M359.2,291.4c0,0-2.2,0-4.9,0c-2.7,0-3.8-1.9-2.4-4.2c1.3-2.3,3.5-6.1,4.9-8.4c1.3-2.3,2.4-4.2,2.4-4.2"/>
		</g>
		<g>
			<path class="st3" d="M359.2,291.4c0,0,2.2,0,4.9,0c2.7,0,3.8-1.9,2.4-4.2c-1.3-2.3-3.5-6.1-4.9-8.4c-1.3-2.3-2.4-4.2-2.4-4.2"/>
		</g>
		<g>
			<path class="st2" d="M359.2,301.1c0,0-2.6,0-5.8,0c-3.2,0-4.5-2.3-2.9-5.1c1.6-2.8,4.2-7.3,5.8-10.1c1.6-2.8,2.9-5.1,2.9-5.1"/>
		</g>
		<g>
			<path class="st3" d="M359.2,301.1c0,0,2.6,0,5.8,0c3.2,0,4.5-2.3,2.9-5.1c-1.6-2.8-4.2-7.3-5.8-10.1c-1.6-2.8-2.9-5.1-2.9-5.1"/>
		</g>
		<g>
			<path class="st2" d="M359.2,311.5c0,0-3.2,0-7.1,0c-3.9,0-5.5-2.8-3.6-6.2c2-3.4,5.2-9,7.2-12.4c2-3.4,3.6-6.2,3.6-6.2"/>
		</g>
		<g>
			<path class="st3" d="M359.2,311.5c0,0,3.2,0,7.1,0s5.5-2.8,3.6-6.2c-2-3.4-5.2-9-7.2-12.4c-2-3.4-3.6-6.2-3.6-6.2"/>
		</g>
	</g>
	<g>
		<g>
			<path class="st2" d="M328.5,281.4c0,0-2.7,0-6,0c-3.3,0-4.6-2.3-3-5.2c1.6-2.8,4.3-7.5,6-10.3c1.6-2.8,3-5.2,3-5.2"/>
		</g>
		<g>
			<path class="st3" d="M328.5,281.4c0,0,2.7,0,6,0c3.3,0,4.6-2.3,3-5.2c-1.6-2.8-4.3-7.5-6-10.3c-1.6-2.8-3-5.2-3-5.2"/>
		</g>
		<g>
			<path class="st2" d="M328.5,293.2c0,0-3.2,0-7.1,0c-3.9,0-5.5-2.8-3.6-6.2c2-3.4,5.2-8.9,7.1-12.3c2-3.4,3.6-6.2,3.6-6.2"/>
		</g>
		<g>
			<path class="st3" d="M328.5,293.2c0,0,3.2,0,7.1,0c3.9,0,5.5-2.8,3.6-6.2c-2-3.4-5.2-8.9-7.1-12.3c-2-3.4-3.6-6.2-3.6-6.2"/>
		</g>
		<g>
			<path class="st2" d="M328.5,306c0,0-3.9,0-8.7,0s-6.8-3.4-4.4-7.6c2.4-4.2,6.3-11,8.7-15.1c2.4-4.2,4.4-7.6,4.4-7.6"/>
		</g>
		<g>
			<path class="st3" d="M328.5,306c0,0,3.9,0,8.7,0s6.8-3.4,4.4-7.6c-2.4-4.2-6.3-11-8.7-15.1c-2.4-4.2-4.4-7.6-4.4-7.6"/>
		</g>
	</g>
	<g>
		<g>
			<path class="st2" d="M346.4,293.1c0,0-1.2,0-2.8,0s-2.1-1.1-1.4-2.4c0.8-1.3,2-3.5,2.8-4.8c0.8-1.3,1.4-2.4,1.4-2.4"/>
		</g>
		<g>
			<path class="st3" d="M346.4,293.1c0,0,1.2,0,2.8,0c1.5,0,2.1-1.1,1.4-2.4c-0.8-1.3-2-3.5-2.8-4.8c-0.8-1.3-1.4-2.4-1.4-2.4"/>
		</g>
		<g>
			<path class="st2" d="M346.4,298.6c0,0-1.5,0-3.3,0c-1.8,0-2.6-1.3-1.7-2.9c0.9-1.6,2.4-4.2,3.3-5.7c0.9-1.6,1.7-2.9,1.7-2.9"/>
		</g>
		<g>
			<path class="st3" d="M346.4,298.6c0,0,1.5,0,3.3,0c1.8,0,2.6-1.3,1.7-2.9c-0.9-1.6-2.4-4.2-3.3-5.7c-0.9-1.6-1.7-2.9-1.7-2.9"/>
		</g>
		<g>
			<path class="st2" d="M346.4,304.5c0,0-1.8,0-4.1,0c-2.2,0-3.1-1.6-2-3.5c1.1-1.9,2.9-5.1,4.1-7c1.1-1.9,2-3.5,2-3.5"/>
		</g>
		<g>
			<path class="st3" d="M346.4,304.5c0,0,1.8,0,4.1,0c2.2,0,3.1-1.6,2-3.5c-1.1-1.9-2.9-5.1-4.1-7c-1.1-1.9-2-3.5-2-3.5"/>
		</g>
	</g>
	<g>
		<g>
			<path class="st2" d="M126.4,307.2c0,0-1.2,0-2.8,0c-1.5,0-2.1-1.1-1.4-2.4c0.8-1.3,2-3.5,2.8-4.8c0.8-1.3,1.4-2.4,1.4-2.4"/>
		</g>
		<g>
			<path class="st3" d="M126.4,307.2c0,0,1.2,0,2.8,0c1.5,0,2.1-1.1,1.4-2.4c-0.8-1.3-2-3.5-2.8-4.8c-0.8-1.3-1.4-2.4-1.4-2.4"/>
		</g>
		<g>
			<path class="st2" d="M126.4,312.7c0,0-1.5,0-3.3,0c-1.8,0-2.6-1.3-1.7-2.9s2.4-4.2,3.3-5.7c0.9-1.6,1.7-2.9,1.7-2.9"/>
		</g>
		<g>
			<path class="st3" d="M126.4,312.7c0,0,1.5,0,3.3,0c1.8,0,2.6-1.3,1.7-2.9c-0.9-1.6-2.4-4.2-3.3-5.7c-0.9-1.6-1.7-2.9-1.7-2.9"/>
		</g>
		<g>
			<path class="st2" d="M126.4,318.7c0,0-1.8,0-4.1,0c-2.2,0-3.1-1.6-2-3.5c1.1-1.9,2.9-5.1,4.1-7c1.1-1.9,2-3.5,2-3.5"/>
		</g>
		<g>
			<path class="st3" d="M126.4,318.7c0,0,1.8,0,4.1,0c2.2,0,3.1-1.6,2-3.5c-1.1-1.9-2.9-5.1-4.1-7c-1.1-1.9-2-3.5-2-3.5"/>
		</g>
	</g>
	<g>
		<g>
			<path class="st2" d="M427.2,309.3c0,0-1.6,0-3.6,0c-2,0-2.8-1.4-1.8-3.2c1-1.7,2.6-4.6,3.6-6.3c1-1.7,1.8-3.2,1.8-3.2"/>
		</g>
		<g>
			<path class="st3" d="M427.2,309.3c0,0,1.6,0,3.6,0c2,0,2.8-1.4,1.8-3.2s-2.6-4.6-3.6-6.3c-1-1.7-1.8-3.2-1.8-3.2"/>
		</g>
		<g>
			<path class="st2" d="M427.2,316.5c0,0-2,0-4.4,0c-2.4,0-3.4-1.7-2.2-3.8c1.2-2.1,3.2-5.5,4.4-7.6c1.2-2.1,2.2-3.8,2.2-3.8"/>
		</g>
		<g>
			<path class="st3" d="M427.2,316.5c0,0,2,0,4.4,0c2.4,0,3.4-1.7,2.2-3.8c-1.2-2.1-3.2-5.5-4.4-7.6c-1.2-2.1-2.2-3.8-2.2-3.8"/>
		</g>
		<g>
			<path class="st2" d="M427.2,324.4c0,0-2.4,0-5.3,0s-4.1-2.1-2.7-4.6c1.5-2.5,3.9-6.7,5.3-9.3c1.5-2.5,2.7-4.6,2.7-4.6"/>
		</g>
		<g>
			<path class="st3" d="M427.2,324.4c0,0,2.4,0,5.3,0s4.1-2.1,2.7-4.6c-1.5-2.5-3.9-6.7-5.3-9.3c-1.5-2.5-2.7-4.6-2.7-4.6"/>
		</g>
	</g>
	<g>
		<g>
			<path class="st2" d="M441,319c0,0-1.6,0-3.6,0c-2,0-2.8-1.4-1.8-3.2c1-1.7,2.6-4.6,3.6-6.3c1-1.7,1.8-3.2,1.8-3.2"/>
		</g>
		<g>
			<path class="st3" d="M441,319c0,0,1.6,0,3.6,0c2,0,2.8-1.4,1.8-3.2c-1-1.7-2.6-4.6-3.6-6.3c-1-1.7-1.8-3.2-1.8-3.2"/>
		</g>
		<g>
			<path class="st2" d="M441,326.2c0,0-2,0-4.4,0c-2.4,0-3.4-1.7-2.2-3.8c1.2-2.1,3.2-5.5,4.4-7.6c1.2-2.1,2.2-3.8,2.2-3.8"/>
		</g>
		<g>
			<path class="st3" d="M441,326.2c0,0,2,0,4.4,0c2.4,0,3.4-1.7,2.2-3.8c-1.2-2.1-3.2-5.5-4.4-7.6s-2.2-3.8-2.2-3.8"/>
		</g>
		<g>
			<path class="st2" d="M441,334c0,0-2.4,0-5.3,0c-2.9,0-4.1-2.1-2.7-4.6c1.5-2.5,3.9-6.7,5.3-9.3c1.5-2.5,2.7-4.6,2.7-4.6"/>
		</g>
		<g>
			<path class="st3" d="M441,334c0,0,2.4,0,5.3,0c2.9,0,4.1-2.1,2.7-4.6c-1.5-2.5-3.9-6.7-5.3-9.3c-1.5-2.5-2.7-4.6-2.7-4.6"/>
		</g>
	</g>
	<path class="st1" d="M465.8,378.1c0-34-27.6-61.6-61.6-61.6c-7,0-13.8,1.2-20.1,3.4c-24.1,8.3-41.5,31.2-41.5,58.2H465.8z"/>
	<path class="st1" d="M64.9,378.1c0-27,17.3-49.9,41.5-58.2c6.3-2.2,13.1-3.4,20.1-3.4c34,0,61.6,27.6,61.6,61.6H64.9z"/>
	<polygon class="st4" points="134.8,333.4 123.4,311.9 106.6,311.9 106.6,333.4 	"/>
	<polygon class="st5" points="123.4,311.9 106.6,280.2 106.6,311.9 	"/>
	<polygon class="st6" points="158,377 134.8,333.4 106.6,333.4 106.6,377 	"/>
	<polygon class="st7" points="78.4,333.4 89.8,311.9 106.6,311.9 106.6,333.4 	"/>
	<polygon class="st8" points="89.8,311.9 106.6,280.2 106.6,311.9 	"/>
	<polygon class="st4" points="55.3,377 78.4,333.4 106.6,333.4 106.6,377 	"/>
	<g>
		<path class="st9" d="M89.8,311.8c1.4,0,1.4,3.2,2.8,3.2c1.4,0,1.4-3.2,2.8-3.2s1.4,3.2,2.8,3.2c1.4,0,1.4-3.2,2.8-3.2
			c1.4,0,1.4,3.2,2.8,3.2c1.4,0,1.4-3.2,2.8-3.2"/>
	</g>
	<g>
		<path class="st5" d="M106.6,311.8c1.4,0,1.4,3.2,2.8,3.2c1.4,0,1.4-3.2,2.8-3.2c1.4,0,1.4,3.2,2.8,3.2c1.4,0,1.4-3.2,2.8-3.2
			c1.4,0,1.4,3.2,2.8,3.2c1.4,0,1.4-3.2,2.8-3.2"/>
	</g>
	<g>
		<path class="st7" d="M78.5,333.2c2.3,0,2.3,5.3,4.7,5.3c2.3,0,2.3-5.3,4.7-5.3c2.3,0,2.3,5.3,4.7,5.3c2.3,0,2.3-5.3,4.7-5.3
			c2.3,0,2.3,5.3,4.7,5.3s2.3-5.3,4.7-5.3"/>
	</g>
	<g>
		<path class="st4" d="M106.6,333.2c2.3,0,2.3,5.3,4.7,5.3c2.3,0,2.3-5.3,4.7-5.3c2.3,0,2.3,5.3,4.7,5.3c2.3,0,2.3-5.3,4.7-5.3
			c2.3,0,2.3,5.3,4.7,5.3s2.3-5.3,4.7-5.3"/>
	</g>
	<polygon class="st8" points="505.5,453.3 -6.3,453.1 -6.3,372.5 505.7,372.5 	"/>
	<circle class="st8" cx="156.2" cy="373.9" r="9.1"/>
	<g>
		<g>
			<path class="st2" d="M453.6,345.2c0,0-3,0-6.6,0c-3.6,0-5.1-2.6-3.3-5.7c1.8-3.1,4.8-8.3,6.6-11.4c1.8-3.1,3.3-5.7,3.3-5.7"/>
		</g>
		<g>
			<path class="st3" d="M453.7,345.2c0,0,3,0,6.6,0c3.6,0,5.1-2.6,3.3-5.7c-1.8-3.1-4.8-8.3-6.6-11.4c-1.8-3.1-3.3-5.7-3.3-5.7"/>
		</g>
		<g>
			<path class="st2" d="M453.7,358.2c0,0-3.5,0-7.9,0s-6.1-3.1-4-6.8c2.1-3.8,5.6-9.9,7.8-13.6c2.2-3.8,3.9-6.8,3.9-6.8"/>
		</g>
		<g>
			<path class="st3" d="M453.7,358.2c0,0,3.5,0,7.9,0c4.3,0,6.1-3.1,3.9-6.8c-2.2-3.8-5.7-9.9-7.9-13.6c-2.2-3.8-3.9-6.8-3.9-6.8"/>
		</g>
		<g>
			<path class="st2" d="M453.6,372.4c0,0-4.3,0-9.7,0c-5.3,0-7.5-3.8-4.8-8.4c2.7-4.6,7-12.1,9.7-16.7c2.7-4.6,4.8-8.4,4.8-8.4"/>
		</g>
		<g>
			<path class="st3" d="M453.7,372.4c0,0,4.3,0,9.7,0c5.3,0,7.5-3.8,4.8-8.4c-2.7-4.6-7-12.1-9.7-16.7c-2.7-4.6-4.8-8.4-4.8-8.4"/>
		</g>
	</g>
	<circle class="st8" cx="70.4" cy="373.9" r="9.1"/>
	<circle class="st8" cx="85.4" cy="373.9" r="9.1"/>
	<circle class="st8" cx="100.4" cy="367.8" r="15.2"/>
	<g>
		<g>
			<path class="st2" d="M194.7,350.9c0,0-2.2,0-4.9,0c-2.7,0-3.8-1.9-2.4-4.2c1.3-2.3,3.5-6.1,4.9-8.4c1.3-2.3,2.4-4.2,2.4-4.2"/>
		</g>
		<g>
			<path class="st3" d="M194.7,350.9c0,0,2.2,0,4.9,0c2.7,0,3.8-1.9,2.4-4.2c-1.3-2.3-3.5-6.1-4.9-8.4c-1.3-2.3-2.4-4.2-2.4-4.2"/>
		</g>
		<g>
			<path class="st2" d="M194.7,360.6c0,0-2.6,0-5.8,0c-3.2,0-4.5-2.3-2.9-5.1c1.6-2.8,4.2-7.3,5.8-10.1c1.6-2.8,2.9-5.1,2.9-5.1"/>
		</g>
		<g>
			<path class="st3" d="M194.7,360.6c0,0,2.6,0,5.8,0s4.5-2.3,2.9-5.1c-1.6-2.8-4.2-7.3-5.8-10.1s-2.9-5.1-2.9-5.1"/>
		</g>
		<g>
			<path class="st2" d="M194.7,371.1c0,0-3.2,0-7.1,0c-3.9,0-5.5-2.8-3.6-6.2c2-3.4,5.2-9,7.1-12.4c2-3.4,3.6-6.2,3.6-6.2"/>
		</g>
		<g>
			<path class="st3" d="M194.7,371.1c0,0,3.2,0,7.1,0c3.9,0,5.5-2.8,3.6-6.2c-2-3.4-5.2-9-7.1-12.4c-2-3.4-3.6-6.2-3.6-6.2"/>
		</g>
	</g>
	<g>
		<path class="st8" d="M298.8,139.4c-0.8,0-1.5,0.1-2.2,0.1c0-0.4,0.1-0.9,0.1-1.3c0.1-7.8-6.2-14.2-14-14.3
			c-7.8-0.1-14.2,6.2-14.3,14c0,0.5,0,1,0.1,1.5c-7.2,1.5-12.7,7.8-12.8,15.5l27,0.3l4.9,0.1l27,0.3
			C314.7,146.7,307.7,139.5,298.8,139.4z"/>
		<path class="st8" d="M372.3,205.2c-0.5,0-1,0-1.5,0.1c0-0.3,0.1-0.6,0.1-0.9c0.1-5.2-4.1-9.4-9.2-9.5c-5.2-0.1-9.4,4.1-9.5,9.2
			c0,0.3,0,0.7,0,1c-4.8,1-8.4,5.2-8.4,10.2l17.8,0.2l3.3,0l17.8,0.2C382.8,210.1,378.1,205.3,372.3,205.2z"/>
		<path class="st8" d="M105,202c0-8.8,7.2-16,16-16c3.3,0,6.5,1,9,2.8c0-0.1,0-0.3,0-0.4c0-7.8,6.3-14.2,14.2-14.2
			c5.1,0,9.6,2.7,12.1,6.8c1-0.4,2-0.6,3.1-0.6c4.7,0,8.5,3.8,8.5,8.5c0,0.8-0.1,1.6-0.3,2.3c5.3,2.6,9,8,9,14.4h-27h-4.9h-7.9H105
			V202z"/>
	</g>
	<g>
		<g>
			<path class="st2" d="M343.1,302c0,0-3.5,0-7.7,0c-4.2,0-6-3-3.9-6.7c2.1-3.7,5.6-9.7,7.7-13.4s3.9-6.7,3.9-6.7"/>
		</g>
		<g>
			<path class="st3" d="M343.1,302c0,0,3.5,0,7.7,0c4.2,0,6-3,3.9-6.7c-2.1-3.7-5.6-9.7-7.7-13.4s-3.9-6.7-3.9-6.7"/>
		</g>
		<g>
			<path class="st2" d="M343.1,317.3c0,0-4.2,0-9.2,0c-5.1,0-7.2-3.6-4.6-8s6.7-11.6,9.2-16c2.5-4.4,4.6-8,4.6-8"/>
		</g>
		<g>
			<path class="st3" d="M343.1,317.3c0,0,4.2,0,9.2,0c5.1,0,7.2-3.6,4.6-8s-6.7-11.6-9.2-16s-4.6-8-4.6-8"/>
		</g>
		<g>
			<path class="st2" d="M343.1,333.9c0,0-5.1,0-11.3,0c-6.2,0-8.8-4.4-5.7-9.8s8.2-14.2,11.3-19.6c3.1-5.4,5.7-9.8,5.7-9.8"/>
		</g>
		<g>
			<path class="st3" d="M343.1,333.9c0,0,5.1,0,11.3,0s8.8-4.4,5.7-9.8s-8.2-14.2-11.3-19.6c-3.1-5.4-5.7-9.8-5.7-9.8"/>
		</g>
	</g>
	<polygon class="st4" points="331.4,304 312.5,268.3 284.6,268.3 284.6,304 	"/>
	<polygon class="st5" points="312.5,268.3 284.6,215.6 284.6,268.3 	"/>
	<polygon class="st6" points="369.9,376.5 331.4,304 284.6,304 284.6,376.5 	"/>
	<polygon class="st7" points="237.7,304 256.6,268.3 284.6,268.3 284.6,304 	"/>
	<polygon class="st8" points="256.6,268.3 284.6,215.6 284.6,268.3 	"/>
	<polygon class="st4" points="199.2,376.5 237.7,304 284.6,304 284.6,376.5 	"/>
	<g>
		<path class="st9" d="M256.6,268.2c2.3,0,2.3,5.3,4.7,5.3c2.3,0,2.3-5.3,4.7-5.3s2.3,5.3,4.7,5.3c2.3,0,2.3-5.3,4.7-5.3
			c2.3,0,2.3,5.3,4.7,5.3c2.3,0,2.3-5.3,4.7-5.3"/>
	</g>
	<g>
		<path class="st5" d="M284.6,268.2c2.3,0,2.3,5.3,4.7,5.3c2.3,0,2.3-5.3,4.7-5.3s2.3,5.3,4.7,5.3c2.3,0,2.3-5.3,4.7-5.3
			c2.3,0,2.3,5.3,4.7,5.3c2.3,0,2.3-5.3,4.7-5.3"/>
	</g>
	<g>
		<path class="st7" d="M237.8,303.7c3.9,0,3.9,8.9,7.8,8.9c3.9,0,3.9-8.9,7.8-8.9c3.9,0,3.9,8.9,7.8,8.9c3.9,0,3.9-8.9,7.8-8.9
			c3.9,0,3.9,8.9,7.8,8.9c3.9,0,3.9-8.9,7.8-8.9"/>
	</g>
	<g>
		<path class="st4" d="M284.6,303.7c3.9,0,3.9,8.9,7.8,8.9c3.9,0,3.9-8.9,7.8-8.9c3.9,0,3.9,8.9,7.8,8.9c3.9,0,3.9-8.9,7.8-8.9
			c3.9,0,3.9,8.9,7.8,8.9c3.9,0,3.9-8.9,7.8-8.9"/>
	</g>
	<polygon class="st4" points="421.6,323.2 407.6,296.7 386.8,296.7 386.8,323.2 	"/>
	<polygon class="st5" points="407.6,296.7 386.8,257.6 386.8,296.7 	"/>
	<polygon class="st6" points="450.2,377 421.6,323.2 386.8,323.2 386.8,377 	"/>
	<polygon class="st7" points="352.1,323.2 366.1,296.7 386.8,296.7 386.8,323.2 	"/>
	<polygon class="st8" points="366.1,296.7 386.8,257.6 386.8,296.7 	"/>
	<polygon class="st4" points="323.5,377 352.1,323.2 386.8,323.2 386.8,377 	"/>
	<g>
		<path class="st9" d="M366.1,296.6c1.7,0,1.7,3.9,3.5,3.9c1.7,0,1.7-3.9,3.5-3.9c1.7,0,1.7,3.9,3.5,3.9c1.7,0,1.7-3.9,3.5-3.9
			c1.7,0,1.7,3.9,3.5,3.9c1.7,0,1.7-3.9,3.5-3.9"/>
	</g>
	<g>
		<path class="st5" d="M386.8,296.6c1.7,0,1.7,3.9,3.5,3.9c1.7,0,1.7-3.9,3.5-3.9c1.7,0,1.7,3.9,3.5,3.9c1.7,0,1.7-3.9,3.5-3.9
			c1.7,0,1.7,3.9,3.5,3.9c1.7,0,1.7-3.9,3.5-3.9"/>
	</g>
	<g>
		<path class="st7" d="M352.2,323c2.9,0,2.9,6.6,5.8,6.6c2.9,0,2.9-6.6,5.8-6.6c2.9,0,2.9,6.6,5.8,6.6c2.9,0,2.9-6.6,5.8-6.6
			c2.9,0,2.9,6.6,5.8,6.6c2.9,0,2.9-6.6,5.8-6.6"/>
	</g>
	<g>
		<path class="st4" d="M386.8,323c2.9,0,2.9,6.6,5.8,6.6c2.9,0,2.9-6.6,5.8-6.6c2.9,0,2.9,6.6,5.8,6.6c2.9,0,2.9-6.6,5.8-6.6
			c2.9,0,2.9,6.6,5.8,6.6c2.9,0,2.9-6.6,5.8-6.6"/>
	</g>
	<circle class="st8" cx="279.7" cy="373.9" r="9.1"/>
	<g>
		<g>
			<path class="st2" d="M428.7,362.8c0,0-1.6,0-3.6,0c-2,0-2.8-1.4-1.8-3.2c1-1.7,2.6-4.6,3.6-6.3c1-1.7,1.8-3.2,1.8-3.2"/>
		</g>
		<g>
			<path class="st3" d="M428.7,362.8c0,0,1.6,0,3.6,0c2,0,2.8-1.4,1.8-3.2s-2.6-4.6-3.6-6.3c-1-1.7-1.8-3.2-1.8-3.2"/>
		</g>
		<g>
			<path class="st2" d="M428.7,370.1c0,0-2,0-4.4,0c-2.4,0-3.4-1.7-2.2-3.8c1.2-2.1,3.2-5.5,4.4-7.6c1.2-2.1,2.2-3.8,2.2-3.8"/>
		</g>
		<g>
			<path class="st3" d="M428.7,370.1c0,0,2,0,4.4,0c2.4,0,3.4-1.7,2.2-3.8c-1.2-2.1-3.2-5.5-4.4-7.6c-1.2-2.1-2.2-3.8-2.2-3.8"/>
		</g>
		<g>
			<path class="st2" d="M428.7,377.9c0,0-2.4,0-5.3,0s-4.1-2.1-2.7-4.6c1.5-2.5,3.9-6.7,5.3-9.3c1.5-2.5,2.7-4.6,2.7-4.6"/>
		</g>
		<g>
			<path class="st3" d="M428.7,377.9c0,0,2.4,0,5.3,0s4.1-2.1,2.7-4.6c-1.5-2.5-3.9-6.7-5.3-9.3c-1.5-2.5-2.7-4.6-2.7-4.6"/>
		</g>
	</g>
	<g>
		<g>
			<path class="st2" d="M413.6,357.7c0,0-2.2,0-4.9,0c-2.7,0-3.8-1.9-2.4-4.2c1.3-2.3,3.5-6.1,4.9-8.4c1.3-2.3,2.4-4.2,2.4-4.2"/>
		</g>
		<g>
			<path class="st3" d="M413.6,357.7c0,0,2.2,0,4.9,0c2.7,0,3.8-1.9,2.4-4.2c-1.3-2.3-3.5-6.1-4.9-8.4c-1.3-2.3-2.4-4.2-2.4-4.2"/>
		</g>
		<g>
			<path class="st2" d="M413.6,367.4c0,0-2.6,0-5.8,0c-3.2,0-4.5-2.3-2.9-5.1c1.6-2.8,4.2-7.3,5.8-10.1c1.6-2.8,2.9-5.1,2.9-5.1"/>
		</g>
		<g>
			<path class="st3" d="M413.6,367.4c0,0,2.6,0,5.8,0c3.2,0,4.5-2.3,2.9-5.1c-1.6-2.8-4.2-7.3-5.8-10.1c-1.6-2.8-2.9-5.1-2.9-5.1"/>
		</g>
		<g>
			<path class="st2" d="M413.6,377.9c0,0-3.2,0-7.1,0c-3.9,0-5.5-2.8-3.6-6.2c2-3.4,5.2-9,7.2-12.4c2-3.4,3.6-6.2,3.6-6.2"/>
		</g>
		<g>
			<path class="st3" d="M413.6,377.9c0,0,3.2,0,7.1,0c3.9,0,5.5-2.8,3.6-6.2c-2-3.4-5.2-9-7.2-12.4c-2-3.4-3.6-6.2-3.6-6.2"/>
		</g>
	</g>
	<g>
		<g>
			<path class="st2" d="M222.4,349.4c0,0-3.1,0-6.9,0c-3.8,0-5.3-2.7-3.4-6c1.9-3.3,5-8.7,6.9-11.9c1.9-3.3,3.4-6,3.4-6"/>
		</g>
		<g>
			<path class="st3" d="M222.4,349.4c0,0,3.1,0,6.9,0c3.8,0,5.3-2.7,3.4-6c-1.9-3.3-5-8.7-6.9-11.9c-1.9-3.3-3.4-6-3.4-6"/>
		</g>
		<g>
			<path class="st2" d="M222.4,363.1c0,0-3.7,0-8.3,0c-4.5,0-6.4-3.2-4.1-7.1c2.3-3.9,6-10.4,8.3-14.3c2.3-3.9,4.1-7.1,4.1-7.1"/>
		</g>
		<g>
			<path class="st3" d="M222.4,363.1c0,0,3.7,0,8.3,0c4.5,0,6.4-3.2,4.1-7.1c-2.3-3.9-6-10.4-8.3-14.3c-2.3-3.9-4.1-7.1-4.1-7.1"/>
		</g>
		<g>
			<path class="st2" d="M222.4,377.9c0,0-4.6,0-10.1,0c-5.6,0-7.8-3.9-5.1-8.8c2.8-4.8,7.3-12.7,10.1-17.5c2.8-4.8,5.1-8.8,5.1-8.8"
				/>
		</g>
		<g>
			<path class="st3" d="M222.4,377.9c0,0,4.6,0,10.1,0c5.6,0,7.8-3.9,5.1-8.8c-2.8-4.8-7.3-12.7-10.1-17.5c-2.8-4.8-5.1-8.8-5.1-8.8
				"/>
		</g>
	</g>
	<g>
		<g>
			<path class="st2" d="M319.1,357.7c0,0-2.2,0-4.9,0c-2.7,0-3.8-1.9-2.4-4.2c1.3-2.3,3.5-6.1,4.9-8.4c1.3-2.3,2.4-4.2,2.4-4.2"/>
		</g>
		<g>
			<path class="st3" d="M319.1,357.7c0,0,2.2,0,4.9,0c2.7,0,3.8-1.9,2.4-4.2c-1.3-2.3-3.5-6.1-4.9-8.4c-1.3-2.3-2.4-4.2-2.4-4.2"/>
		</g>
		<g>
			<path class="st2" d="M319.1,367.4c0,0-2.6,0-5.8,0c-3.2,0-4.5-2.3-2.9-5.1c1.6-2.8,4.2-7.3,5.8-10.1s2.9-5.1,2.9-5.1"/>
		</g>
		<g>
			<path class="st3" d="M319.1,367.4c0,0,2.6,0,5.8,0c3.2,0,4.5-2.3,2.9-5.1c-1.6-2.8-4.2-7.3-5.8-10.1c-1.6-2.8-2.9-5.1-2.9-5.1"/>
		</g>
		<g>
			<path class="st2" d="M319.1,377.9c0,0-3.2,0-7.1,0c-3.9,0-5.5-2.8-3.6-6.2c2-3.4,5.2-9,7.2-12.4c2-3.4,3.6-6.2,3.6-6.2"/>
		</g>
		<g>
			<path class="st3" d="M319.1,377.9c0,0,3.2,0,7.1,0s5.5-2.8,3.6-6.2c-2-3.4-5.2-9-7.2-12.4c-2-3.4-3.6-6.2-3.6-6.2"/>
		</g>
	</g>
	<circle class="st8" cx="441" cy="373.9" r="9.1"/>
	<circle class="st8" cx="321.6" cy="373.9" r="9.1"/>
	<circle class="st8" cx="336.6" cy="373.9" r="9.1"/>
	<circle class="st8" cx="351.6" cy="367.8" r="15.2"/>
	<circle class="st8" cx="381.6" cy="373.9" r="9.1"/>
	<circle class="st8" cx="366.6" cy="373.9" r="9.1"/>
	<circle class="st8" cx="218.7" cy="373.9" r="9.1"/>
	<circle class="st8" cx="203.7" cy="367.8" r="15.2"/>
</g>
<g id="DESIGNED_BY_FREEPIK">
</g>
</svg>
