<?xml version="1.0" encoding="utf-8"?>
<!-- Generator: Adobe Illustrator 21.1.0, SVG Export Plug-In . SVG Version: 6.00 Build 0)  -->
<svg version="1.1" id="Calque_1" xmlns="http://www.w3.org/2000/svg" xmlns:xlink="http://www.w3.org/1999/xlink" x="0px" y="0px"
	 viewBox="0 0 378 619.2" style="enable-background:new 0 0 378 619.2;" xml:space="preserve">
<style type="text/css">
	.st0{fill:#D0ECEF;}
	.st1{fill:#C1E0D7;}
	.st2{fill:#D3F0EC;}
	.st3{fill:#B2D1CC;}
	.st4{fill:#A5CEC1;}
	.st5{fill:#C1D2C8;}
	.st6{fill:#97BFB5;}
	.st7{fill:#FEFEFC;}
	.st8{fill:#FFFFFF;}
	.st9{fill:#B8D8CD;}
</style>
<rect x="-3" y="-3.7" class="st0" width="384.3" height="622.9"/>
<g id="BACKGROUND">
</g>
<path class="st1" d="M348.8,453.5c-7.2,0-14.2,1.2-20.6,3.5c-24.3,8.4-41.9,31.1-42.6,58.1h34.8h61v-52.6
	C371.8,456.8,360.7,453.5,348.8,453.5z"/>
<path class="st1" d="M151.5,417.8c-11.1-3.8-23-5.9-35.3-5.9c-33.4,0-63.2,14.9-83.4,38.3C17.6,468,8,490.5,6.5,515.2h102.4h31.2
	c-5.1-11.9-8-25.1-8-38.9C132.2,454.4,139.3,434.2,151.5,417.8z"/>
<g>
	<g>
		<path class="st2" d="M78.2,444.6c0,0-2.4,0-5.2,0c-2.9,0-4.1-2.1-2.7-4.5s3.8-6.6,5.2-9.1c1.4-2.5,2.7-4.5,2.7-4.5"/>
	</g>
	<g>
		<path class="st3" d="M78.2,444.6c0,0,2.4,0,5.2,0c2.9,0,4.1-2.1,2.7-4.5s-3.8-6.6-5.2-9.1c-1.4-2.5-2.7-4.5-2.7-4.5"/>
	</g>
	<g>
		<path class="st2" d="M78.2,455.1c0,0-2.9,0-6.3,0c-3.5,0-4.9-2.5-3.2-5.4s4.5-7.9,6.3-10.9c1.7-3,3.2-5.4,3.2-5.4"/>
	</g>
	<g>
		<path class="st3" d="M78.2,455.1c0,0,2.9,0,6.3,0c3.5,0,4.9-2.5,3.2-5.4c-1.7-3-4.5-7.9-6.3-10.9c-1.7-3-3.2-5.4-3.2-5.4"/>
	</g>
	<g>
		<path class="st2" d="M78.2,466.4c0,0-3.5,0-7.7,0c-4.2,0-6-3-3.9-6.7c2.2-3.7,5.5-9.7,7.7-13.4s3.9-6.7,3.9-6.7"/>
	</g>
	<g>
		<path class="st3" d="M78.2,466.4c0,0,3.5,0,7.7,0s6-3,3.9-6.7c-2.2-3.7-5.5-9.7-7.7-13.4c-2.2-3.7-3.9-6.7-3.9-6.7"/>
	</g>
</g>
<g>
	<g>
		<path class="st2" d="M118.1,471.1c0,0-3.1,0-6.8,0s-5.2-2.7-3.4-5.9c1.8-3.2,4.9-8.5,6.8-11.7c1.8-3.2,3.4-5.9,3.4-5.9"/>
	</g>
	<g>
		<path class="st3" d="M118.2,471.1c0,0,3.1,0,6.8,0c3.7,0,5.2-2.7,3.4-5.9c-1.8-3.2-4.9-8.5-6.8-11.7c-1.8-3.2-3.4-5.9-3.4-5.9"/>
	</g>
	<g>
		<path class="st2" d="M118.2,484.5c0,0-3.6,0-8.1,0c-4.4,0-6.3-3.2-4.1-7c2.2-3.9,5.8-10.2,8-14c2.3-3.9,4-7,4-7"/>
	</g>
	<g>
		<path class="st3" d="M118.2,484.5c0,0,3.6,0,8.1,0c4.4,0,6.3-3.2,4-7c-2.3-3.9-5.9-10.2-8.1-14c-2.3-3.9-4-7-4-7"/>
	</g>
	<g>
		<path class="st2" d="M118.1,499.1c0,0-4.4,0-10,0c-5.4,0-7.7-3.9-4.9-8.6s7.2-12.4,10-17.2c2.8-4.7,4.9-8.6,4.9-8.6"/>
	</g>
	<g>
		<path class="st3" d="M118.2,499.1c0,0,4.4,0,10,0c5.4,0,7.7-3.9,4.9-8.6s-7.2-12.4-10-17.2c-2.8-4.7-4.9-8.6-4.9-8.6"/>
	</g>
</g>
<g>
	<g>
		<path class="st2" d="M15.4,456.8c0,0-2.3,0-5,0s-3.9-2-2.5-4.3c1.3-2.4,3.6-6.3,5-8.6c1.3-2.4,2.5-4.3,2.5-4.3"/>
	</g>
	<g>
		<path class="st3" d="M15.4,456.8c0,0,2.3,0,5,0c2.8,0,3.9-2,2.5-4.3c-1.3-2.4-3.6-6.3-5-8.6c-1.3-2.4-2.5-4.3-2.5-4.3"/>
	</g>
	<g>
		<path class="st2" d="M15.4,466.7c0,0-2.7,0-6,0s-4.6-2.4-3-5.2c1.6-2.9,4.3-7.5,6-10.4c1.6-2.9,3-5.2,3-5.2"/>
	</g>
	<g>
		<path class="st3" d="M15.4,466.7c0,0,2.7,0,6,0s4.6-2.4,3-5.2c-1.6-2.9-4.3-7.5-6-10.4c-1.6-2.9-3-5.2-3-5.2"/>
	</g>
	<g>
		<path class="st2" d="M15.4,477.5c0,0-3.3,0-7.3,0s-5.6-2.9-3.7-6.4c2.1-3.5,5.3-9.2,7.3-12.7c2.1-3.5,3.7-6.4,3.7-6.4"/>
	</g>
	<g>
		<path class="st3" d="M15.4,477.5c0,0,3.3,0,7.3,0s5.6-2.9,3.7-6.4c-2.1-3.5-5.3-9.2-7.3-12.7c-2.1-3.5-3.7-6.4-3.7-6.4"/>
	</g>
</g>
<path class="st1" d="M314.1,425.5c-17.2-28.4-48.4-47.4-83.9-47.4c-32.2,0-60.9,15.6-78.8,39.7c-12.1,16.3-19.3,36.6-19.3,58.4
	c0,13.9,2.9,26.9,8,38.9h85.6h43.6c-2.3-6.9-3.4-14.3-3.4-21.9C265.9,461.9,286.1,435.2,314.1,425.5z"/>
<g>
	<g>
		<path class="st2" d="M302.5,427.7c0,0-2.3,0-5,0c-2.8,0-3.9-2-2.5-4.3c1.3-2.4,3.6-6.3,5-8.6c1.3-2.4,2.5-4.3,2.5-4.3"/>
	</g>
	<g>
		<path class="st3" d="M302.5,427.7c0,0,2.3,0,5,0c2.8,0,3.9-2,2.5-4.3c-1.3-2.4-3.6-6.3-5-8.6c-1.3-2.4-2.5-4.3-2.5-4.3"/>
	</g>
	<g>
		<path class="st2" d="M302.5,437.7c0,0-2.7,0-6,0c-3.3,0-4.6-2.4-3-5.2c1.6-2.9,4.3-7.5,6-10.4c1.6-2.9,3-5.2,3-5.2"/>
	</g>
	<g>
		<path class="st3" d="M302.5,437.7c0,0,2.7,0,6,0c3.3,0,4.6-2.4,3-5.2c-1.6-2.9-4.3-7.5-6-10.4c-1.6-2.9-3-5.2-3-5.2"/>
	</g>
	<g>
		<path class="st2" d="M302.5,448.3c0,0-3.3,0-7.3,0c-4,0-5.6-2.9-3.7-6.4c2.1-3.5,5.3-9.2,7.4-12.7s3.7-6.4,3.7-6.4"/>
	</g>
	<g>
		<path class="st3" d="M302.5,448.3c0,0,3.3,0,7.3,0s5.6-2.9,3.7-6.4c-2.1-3.5-5.3-9.2-7.4-12.7c-2.1-3.5-3.7-6.4-3.7-6.4"/>
	</g>
</g>
<g>
	<g>
		<path class="st2" d="M271,417.4c0,0-2.8,0-6.2,0s-4.7-2.4-3.1-5.3c1.6-2.9,4.4-7.7,6.2-10.6c1.6-2.9,3.1-5.3,3.1-5.3"/>
	</g>
	<g>
		<path class="st3" d="M271,417.4c0,0,2.8,0,6.2,0c3.4,0,4.7-2.4,3.1-5.3c-1.6-2.9-4.4-7.7-6.2-10.6c-1.6-2.9-3.1-5.3-3.1-5.3"/>
	</g>
	<g>
		<path class="st2" d="M271,429.5c0,0-3.3,0-7.3,0s-5.6-2.9-3.7-6.4c2.1-3.5,5.3-9.1,7.3-12.6c2.1-3.5,3.7-6.4,3.7-6.4"/>
	</g>
	<g>
		<path class="st3" d="M271,429.5c0,0,3.3,0,7.3,0c4,0,5.6-2.9,3.7-6.4c-2.1-3.5-5.3-9.1-7.3-12.6c-2.1-3.5-3.7-6.4-3.7-6.4"/>
	</g>
	<g>
		<path class="st2" d="M271,442.7c0,0-4,0-8.9,0s-7-3.5-4.5-7.8c2.5-4.3,6.5-11.3,8.9-15.5c2.5-4.3,4.5-7.8,4.5-7.8"/>
	</g>
	<g>
		<path class="st3" d="M271,442.7c0,0,4,0,8.9,0s7-3.5,4.5-7.8c-2.5-4.3-6.5-11.3-8.9-15.5c-2.5-4.3-4.5-7.8-4.5-7.8"/>
	</g>
</g>
<g>
	<g>
		<path class="st2" d="M289.4,429.4c0,0-1.2,0-2.9,0c-1.5,0-2.2-1.1-1.4-2.5c0.8-1.3,2.1-3.6,2.9-4.9s1.4-2.5,1.4-2.5"/>
	</g>
	<g>
		<path class="st3" d="M289.4,429.4c0,0,1.2,0,2.9,0c1.5,0,2.2-1.1,1.4-2.5c-0.8-1.3-2.1-3.6-2.9-4.9s-1.4-2.5-1.4-2.5"/>
	</g>
	<g>
		<path class="st2" d="M289.4,435.1c0,0-1.5,0-3.4,0c-1.8,0-2.7-1.3-1.7-3c0.9-1.6,2.5-4.3,3.4-5.9c0.9-1.6,1.7-3,1.7-3"/>
	</g>
	<g>
		<path class="st3" d="M289.4,435.1c0,0,1.5,0,3.4,0c1.8,0,2.7-1.3,1.7-3c-0.9-1.6-2.5-4.3-3.4-5.9c-0.9-1.6-1.7-3-1.7-3"/>
	</g>
	<g>
		<path class="st2" d="M289.4,441.3c0,0-1.8,0-4.2,0c-2.3,0-3.2-1.6-2.1-3.6s3-5.2,4.2-7.2c1.1-2,2.1-3.6,2.1-3.6"/>
	</g>
	<g>
		<path class="st3" d="M289.4,441.3c0,0,1.8,0,4.2,0c2.3,0,3.2-1.6,2.1-3.6s-3-5.2-4.2-7.2c-1.1-2-2.1-3.6-2.1-3.6"/>
	</g>
</g>
<g>
	<g>
		<path class="st2" d="M63.4,443.9c0,0-1.2,0-2.9,0c-1.5,0-2.2-1.1-1.4-2.5c0.8-1.3,2.1-3.6,2.9-4.9c0.8-1.3,1.4-2.5,1.4-2.5"/>
	</g>
	<g>
		<path class="st3" d="M63.4,443.9c0,0,1.2,0,2.9,0c1.5,0,2.2-1.1,1.4-2.5c-0.8-1.3-2.1-3.6-2.9-4.9c-0.8-1.3-1.4-2.5-1.4-2.5"/>
	</g>
	<g>
		<path class="st2" d="M63.4,449.6c0,0-1.5,0-3.4,0c-1.8,0-2.7-1.3-1.7-3s2.5-4.3,3.4-5.9c0.9-1.6,1.7-3,1.7-3"/>
	</g>
	<g>
		<path class="st3" d="M63.4,449.6c0,0,1.5,0,3.4,0s2.7-1.3,1.7-3c-0.9-1.6-2.5-4.3-3.4-5.9c-0.9-1.6-1.7-3-1.7-3"/>
	</g>
	<g>
		<path class="st2" d="M63.4,455.7c0,0-1.8,0-4.2,0c-2.3,0-3.2-1.6-2.1-3.6s3-5.2,4.2-7.2c1.1-2,2.1-3.6,2.1-3.6"/>
	</g>
	<g>
		<path class="st3" d="M63.4,455.7c0,0,1.8,0,4.2,0c2.3,0,3.2-1.6,2.1-3.6c-1.1-2-3-5.2-4.2-7.2c-1.1-2-2.1-3.6-2.1-3.6"/>
	</g>
</g>
<path class="st1" d="M0.3,516.8C0.3,489,18,465.5,42.9,457c6.5-2.3,13.5-3.5,20.6-3.5c34.9,0,63.3,28.4,63.3,63.3H0.3z"/>
<polygon class="st4" points="72.1,470.8 60.4,448.7 43.1,448.7 43.1,470.8 "/>
<polygon class="st5" points="60.4,448.7 43.1,416.2 43.1,448.7 "/>
<polygon class="st6" points="95.9,515.6 72.1,470.8 43.1,470.8 43.1,515.6 "/>
<polygon class="st7" points="25.9,448.7 43.1,416.2 43.1,448.7 "/>
<g>
	<path class="st5" d="M43.1,448.7c1.4,0,1.4,3.3,2.9,3.3c1.4,0,1.4-3.3,2.9-3.3c1.4,0,1.4,3.3,2.9,3.3s1.4-3.3,2.9-3.3
		c1.4,0,1.4,3.3,2.9,3.3s1.4-3.3,2.9-3.3"/>
</g>
<g>
	<path class="st4" d="M43.1,470.6c2.4,0,2.4,5.4,4.8,5.4c2.4,0,2.4-5.4,4.8-5.4c2.4,0,2.4,5.4,4.8,5.4c2.4,0,2.4-5.4,4.8-5.4
		c2.4,0,2.4,5.4,4.8,5.4c2.4,0,2.4-5.4,4.8-5.4"/>
</g>
<circle class="st8" cx="94.1" cy="512.4" r="9.3"/>
<circle class="st7" cx="21.3" cy="512.4" r="9.3"/>
<g>
	<g>
		<path class="st2" d="M133.6,488.8c0,0-2.3,0-5,0c-2.8,0-3.9-2-2.5-4.3c1.3-2.4,3.6-6.3,5-8.6c1.3-2.4,2.5-4.3,2.5-4.3"/>
	</g>
	<g>
		<path class="st3" d="M133.6,488.8c0,0,2.3,0,5,0c2.8,0,3.9-2,2.5-4.3c-1.3-2.4-3.6-6.3-5-8.6c-1.3-2.4-2.5-4.3-2.5-4.3"/>
	</g>
	<g>
		<path class="st2" d="M133.6,498.8c0,0-2.7,0-6,0s-4.6-2.4-3-5.2c1.6-2.9,4.3-7.5,6-10.4c1.6-2.9,3-5.2,3-5.2"/>
	</g>
	<g>
		<path class="st3" d="M133.6,498.8c0,0,2.7,0,6,0c3.3,0,4.6-2.4,3-5.2c-1.6-2.9-4.3-7.5-6-10.4s-3-5.2-3-5.2"/>
	</g>
	<g>
		<path class="st2" d="M133.6,509.6c0,0-3.3,0-7.3,0c-4,0-5.6-2.9-3.7-6.4c2.1-3.5,5.3-9.2,7.3-12.7c2.1-3.5,3.7-6.4,3.7-6.4"/>
	</g>
	<g>
		<path class="st3" d="M133.6,509.6c0,0,3.3,0,7.3,0c4,0,5.6-2.9,3.7-6.4c-2.1-3.5-5.3-9.2-7.3-12.7c-2.1-3.5-3.7-6.4-3.7-6.4"/>
	</g>
</g>
<g>
	<path class="st7" d="M240.5,271.6c-0.8,0-1.5,0.1-2.3,0.1c0-0.4,0.1-0.9,0.1-1.3c0.1-8-6.4-14.6-14.4-14.7
		c-8-0.1-14.6,6.4-14.7,14.4c0,0.5,0,1,0.1,1.5c-7.4,1.5-13,8-13.1,15.9l27.7,0.3l5,0.1l27.7,0.3
		C256.8,279.2,249.6,271.7,240.5,271.6z"/>
	<path class="st7" d="M316,339.2c-0.5,0-1,0-1.5,0.1c0-0.3,0.1-0.6,0.1-0.9c0.1-5.3-4.2-9.7-9.4-9.8c-5.3-0.1-9.7,4.2-9.8,9.5
		c0,0.3,0,0.7,0,1c-4.9,1-8.6,5.3-8.6,10.5l18.3,0.2h3.4l18.3,0.2C326.8,344.2,322,339.2,316,339.2z"/>
	<path class="st7" d="M41.5,335.9c0-9,7.4-16.4,16.4-16.4c3.4,0,6.7,1,9.2,2.9c0-0.1,0-0.3,0-0.4c0-8,6.5-14.6,14.6-14.6
		c5.2,0,9.9,2.8,12.4,7c1-0.4,2.1-0.6,3.2-0.6c4.8,0,8.7,3.9,8.7,8.7c0,0.8-0.1,1.6-0.3,2.4c5.4,2.7,9.2,8.2,9.2,14.8H87.3H82h-8.1
		H41.5V335.9z"/>
</g>
<g>
	<g>
		<path class="st2" d="M286,438.6c0,0-3.6,0-7.9,0c-4.3,0-6.2-3.1-4-6.9c2.2-3.8,5.8-10,7.9-13.8c2.2-3.8,4-6.9,4-6.9"/>
	</g>
	<g>
		<path class="st3" d="M286,438.6c0,0,3.6,0,7.9,0c4.3,0,6.2-3.1,4-6.9c-2.2-3.8-5.8-10-7.9-13.8c-2.2-3.8-4-6.9-4-6.9"/>
	</g>
	<g>
		<path class="st2" d="M286,454.4c0,0-4.3,0-9.4,0c-5.2,0-7.4-3.7-4.7-8.2c2.7-4.5,6.9-11.9,9.4-16.4c2.6-4.5,4.7-8.2,4.7-8.2"/>
	</g>
	<g>
		<path class="st3" d="M286,454.4c0,0,4.3,0,9.4,0c5.2,0,7.4-3.7,4.7-8.2c-2.7-4.5-6.9-11.9-9.4-16.4c-2.6-4.5-4.7-8.2-4.7-8.2"/>
	</g>
	<g>
		<path class="st2" d="M286,471.3c0,0-5.2,0-11.6,0c-6.4,0-9-4.5-5.9-10.1c3.2-5.5,8.4-14.6,11.6-20.1s5.9-10.1,5.9-10.1"/>
	</g>
	<g>
		<path class="st3" d="M286,471.3c0,0,5.2,0,11.6,0s9-4.5,5.9-10.1c-3.2-5.5-8.4-14.6-11.6-20.1c-3.2-5.5-5.9-10.1-5.9-10.1"/>
	</g>
</g>
<polygon class="st4" points="274,440.6 254.6,404 225.9,404 225.9,440.6 "/>
<polygon class="st5" points="254.6,404 225.9,349.8 225.9,404 "/>
<polygon class="st6" points="313.5,515.2 274,440.6 225.9,440.6 225.9,515.2 "/>
<polygon class="st9" points="177.8,440.6 197.2,404 225.9,404 225.9,440.6 "/>
<polygon class="st7" points="197.2,404 225.9,349.8 225.9,404 "/>
<polygon class="st4" points="138.2,515.2 177.8,440.6 225.9,440.6 225.9,515.2 "/>
<g>
	<path class="st8" d="M197.2,403.9c2.4,0,2.4,5.4,4.8,5.4c2.4,0,2.4-5.4,4.8-5.4c2.4,0,2.4,5.4,4.8,5.4c2.4,0,2.4-5.4,4.8-5.4
		c2.4,0,2.4,5.4,4.8,5.4c2.4,0,2.4-5.4,4.8-5.4"/>
</g>
<g>
	<path class="st5" d="M225.9,403.9c2.4,0,2.4,5.4,4.8,5.4c2.4,0,2.4-5.4,4.8-5.4c2.5,0,2.4,5.4,4.8,5.4c2.4,0,2.4-5.4,4.8-5.4
		c2.4,0,2.4,5.4,4.8,5.4c2.4,0,2.4-5.4,4.8-5.4"/>
</g>
<g>
	<path class="st9" d="M177.9,440.3c4,0,4,9.1,8,9.1c4,0,4-9.1,8-9.1s4,9.1,8,9.1s4-9.1,8-9.1c4,0,4,9.1,8,9.1s4-9.1,8-9.1"/>
</g>
<g>
	<path class="st4" d="M225.9,440.3c4,0,4,9.1,8,9.1c4,0,4-9.1,8-9.1c4,0,4,9.1,8,9.1c4,0,4-9.1,8-9.1c4,0,4,9.1,8,9.1s4-9.1,8-9.1"
		/>
</g>
<polygon class="st4" points="366.6,460.4 352.2,433.1 330.9,433.1 330.9,460.4 "/>
<g>
	<path class="st8" d="M309.6,433c1.7,0,1.7,4,3.6,4c1.7,0,1.7-4,3.6-4c1.7,0,1.7,4,3.6,4c1.7,0,1.7-4,3.6-4c1.7,0,1.7,4,3.6,4
		c1.7,0,1.7-4,3.6-4"/>
</g>
<g>
	<path class="st5" d="M330.9,433c1.7,0,1.7,4,3.6,4c1.7,0,1.7-4,3.6-4c1.8,0,1.7,4,3.6,4c1.7,0,1.7-4,3.6-4c1.7,0,1.7,4,3.6,4
		c1.7,0,1.7-4,3.6-4"/>
</g>
<circle class="st8" cx="220.9" cy="512.4" r="9.3"/>
<g>
	<g>
		<path class="st2" d="M162,487.3c0,0-3.2,0-7.1,0c-3.9,0-5.4-2.8-3.5-6.2c2-3.4,5.1-8.9,7.1-12.2c2-3.4,3.5-6.2,3.5-6.2"/>
	</g>
	<g>
		<path class="st3" d="M162,487.3c0,0,3.2,0,7.1,0s5.4-2.8,3.5-6.2c-2-3.4-5.1-8.9-7.1-12.2c-2-3.4-3.5-6.2-3.5-6.2"/>
	</g>
	<g>
		<path class="st2" d="M162,501.3c0,0-3.8,0-8.5,0c-4.6,0-6.6-3.3-4.2-7.3c2.4-4,6.2-10.7,8.5-14.7c2.4-4,4.2-7.3,4.2-7.3"/>
	</g>
	<g>
		<path class="st3" d="M162,501.3c0,0,3.8,0,8.5,0c4.6,0,6.6-3.3,4.2-7.3s-6.2-10.7-8.5-14.7c-2.4-4-4.2-7.3-4.2-7.3"/>
	</g>
	<g>
		<path class="st2" d="M162,516.5c0,0-4.7,0-10.4,0c-5.8,0-8-4-5.2-9c2.9-4.9,7.5-13,10.4-18c2.9-4.9,5.2-9,5.2-9"/>
	</g>
	<g>
		<path class="st3" d="M162,516.5c0,0,4.7,0,10.4,0c5.8,0,8-4,5.2-9c-2.9-4.9-7.5-13-10.4-18c-2.9-4.9-5.2-9-5.2-9"/>
	</g>
</g>
<g>
	<g>
		<path class="st2" d="M261.4,495.9c0,0-2.3,0-5,0s-3.9-2-2.5-4.3c1.3-2.4,3.6-6.3,5-8.6c1.3-2.4,2.5-4.3,2.5-4.3"/>
	</g>
	<g>
		<path class="st3" d="M261.4,495.9c0,0,2.3,0,5,0c2.8,0,3.9-2,2.5-4.3c-1.3-2.4-3.6-6.3-5-8.6c-1.3-2.4-2.5-4.3-2.5-4.3"/>
	</g>
	<g>
		<path class="st2" d="M261.4,505.8c0,0-2.7,0-6,0s-4.6-2.4-3-5.2s4.3-7.5,6-10.4c1.6-2.9,3-5.2,3-5.2"/>
	</g>
	<g>
		<path class="st3" d="M261.4,505.8c0,0,2.7,0,6,0c3.3,0,4.6-2.4,3-5.2s-4.3-7.5-6-10.4c-1.6-2.9-3-5.2-3-5.2"/>
	</g>
	<g>
		<path class="st2" d="M261.4,516.5c0,0-3.3,0-7.3,0s-5.6-2.9-3.7-6.4c2.1-3.5,5.3-9.2,7.4-12.7c2.1-3.5,3.7-6.4,3.7-6.4"/>
	</g>
	<g>
		<path class="st3" d="M261.4,516.5c0,0,3.3,0,7.3,0s5.6-2.9,3.7-6.4c-2.1-3.5-5.3-9.2-7.4-12.7c-2.1-3.5-3.7-6.4-3.7-6.4"/>
	</g>
</g>
<circle class="st8" cx="158.2" cy="512.4" r="9.3"/>
<ellipse class="st8" cx="142.8" cy="506.2" rx="15.6" ry="15.6"/>
<path class="st1" d="M-3,515.1h9.5C8,490.5,17.6,468,32.7,450.3c-13.2,1-25.4,5.4-35.7,12.5V515.1z"/>
<polygon class="st6" points="381.3,488 366.6,460.4 330.9,460.4 330.9,515.6 381.3,515.6 "/>
<polygon class="st5" points="352.2,433.1 330.9,393 330.9,433.1 "/>
<polygon class="st9" points="295.2,460.4 309.6,433.1 330.9,433.1 330.9,460.4 "/>
<polygon class="st7" points="309.6,433.1 330.9,393 330.9,433.1 "/>
<polygon class="st4" points="265.9,515.6 295.2,460.4 330.9,460.4 330.9,515.6 "/>
<g>
	<path class="st9" d="M295.4,460.2c3,0,3,6.8,6,6.8s3-6.8,6-6.8c3,0,3,6.8,6,6.8s3-6.8,6-6.8s3,6.8,6,6.8s3-6.8,6-6.8"/>
</g>
<g>
	<path class="st4" d="M330.9,460.2c3,0,3,6.8,6,6.8s3-6.8,6-6.8s3,6.8,6,6.8s3-6.8,6-6.8c3,0,3,6.8,6,6.8s3-6.8,6-6.8"/>
</g>
<circle class="st8" cx="263.9" cy="512.4" r="9.3"/>
<g>
	<path class="st2" d="M373.9,501c0,0-1.6,0-3.7,0c-2.1,0-2.9-1.4-1.8-3.3c1-1.7,2.7-4.7,3.7-6.5s1.8-3.3,1.8-3.3"/>
</g>
<g>
	<path class="st3" d="M373.9,501c0,0,1.6,0,3.7,0c2.1,0,2.9-1.4,1.8-3.3s-2.7-4.7-3.7-6.5c-1-1.7-1.8-3.3-1.8-3.3"/>
</g>
<g>
	<path class="st2" d="M373.9,508.5c0,0-2.1,0-4.5,0s-3.5-1.7-2.3-3.9c1.2-2.2,3.3-5.6,4.5-7.8c1.2-2.2,2.3-3.9,2.3-3.9"/>
</g>
<g>
	<path class="st3" d="M373.9,508.5c0,0,2.1,0,4.5,0s3.5-1.7,2.3-3.9s-3.3-5.6-4.5-7.8c-1.2-2.2-2.3-3.9-2.3-3.9"/>
</g>
<g>
	<path class="st2" d="M373.9,516.5c0,0-2.5,0-5.4,0s-4.2-2.2-2.8-4.7c1.5-2.6,4-6.9,5.4-9.6c1.5-2.6,2.8-4.7,2.8-4.7"/>
</g>
<path class="st3" d="M381.3,510.4c-1.5-2.5-3.4-5.9-4.6-8.1c-1.5-2.6-2.8-4.7-2.8-4.7v19c0,0,2.5,0,5.4,0c0.8,0,1.4-0.1,1.9-0.4
	V510.4z"/>
<g>
	<g>
		<path class="st2" d="M358.4,495.9c0,0-2.3,0-5,0s-3.9-2-2.5-4.3c1.3-2.4,3.6-6.3,5-8.6c1.3-2.4,2.5-4.3,2.5-4.3"/>
	</g>
	<g>
		<path class="st3" d="M358.4,495.9c0,0,2.3,0,5,0s3.9-2,2.5-4.3c-1.3-2.4-3.6-6.3-5-8.6c-1.3-2.4-2.5-4.3-2.5-4.3"/>
	</g>
	<g>
		<path class="st2" d="M358.4,505.8c0,0-2.7,0-6,0c-3.3,0-4.6-2.4-3-5.2s4.3-7.5,6-10.4c1.6-2.9,3-5.2,3-5.2"/>
	</g>
	<g>
		<path class="st3" d="M358.4,505.8c0,0,2.7,0,6,0c3.3,0,4.6-2.4,3-5.2s-4.3-7.5-6-10.4c-1.6-2.9-3-5.2-3-5.2"/>
	</g>
	<g>
		<path class="st2" d="M358.4,516.5c0,0-3.3,0-7.3,0c-4,0-5.6-2.9-3.7-6.4c2.1-3.5,5.3-9.2,7.4-12.7c2.1-3.5,3.7-6.4,3.7-6.4"/>
	</g>
	<g>
		<path class="st3" d="M358.4,516.5c0,0,3.3,0,7.3,0c4,0,5.6-2.9,3.7-6.4c-2.1-3.5-5.3-9.2-7.4-12.7c-2.1-3.5-3.7-6.4-3.7-6.4"/>
	</g>
</g>
<circle class="st8" cx="279.3" cy="512.4" r="9.3"/>
<ellipse class="st8" cx="294.7" cy="506.2" rx="15.6" ry="15.6"/>
<circle class="st8" cx="325.5" cy="512.4" r="9.3"/>
<circle class="st8" cx="310.1" cy="512.4" r="9.3"/>
<path class="st8" d="M381.3,504.7c-2.5,1.7-4.1,4.5-4.1,7.7c0,3.2,1.6,6.1,4.1,7.7V504.7z"/>
<polygon class="st9" points="14.1,470.8 25.9,448.7 43.1,448.7 43.1,470.8 "/>
<polygon class="st4" points="-3,503.3 -3,515.6 43.1,515.6 43.1,470.8 14.1,470.8 "/>
<ellipse class="st8" cx="36.7" cy="506.2" rx="15.6" ry="15.6"/>
<rect x="-3" y="511.1" class="st8" width="384.3" height="109.6"/>
<g id="DESIGNED_BY_FREEPIK">
</g>
<g>
	<path class="st8" d="M25.9,448.7c1.4,0,1.4,3.3,2.9,3.3c1.4,0,1.4-3.3,2.9-3.3c1.4,0,1.4,3.3,2.9,3.3c1.4,0,1.4-3.3,2.9-3.3
		c1.4,0,1.4,3.3,2.9,3.3c1.4,0,1.4-3.3,2.9-3.3"/>
</g>
<g>
	<path class="st9" d="M14.2,470.6c2.4,0,2.4,5.4,4.8,5.4c2.4,0,2.4-5.4,4.8-5.4c2.4,0,2.4,5.4,4.8,5.4c2.4,0,2.4-5.4,4.8-5.4
		c2.4,0,2.4,5.4,4.8,5.4c2.4,0,2.4-5.4,4.8-5.4"/>
</g>
<circle class="st7" cx="15.9" cy="512.4" r="9.3"/>
</svg>
