<svg width="30" height="90" xmlns="http://www.w3.org/2000/svg" xmlns:xlink="http://www.w3.org/1999/xlink">
  <defs>
    <symbol id="pompom">
      <path stroke="null" d="m10.564213,2.81272c0.9,-1.2 4,0.1 6.8,2.9s4.3,6.1 3.3,7.3s-4,-0.3 -6.7,-3.1c-2.8,-2.8 -4.3,-5.9 -3.4,-7.1z" fill="#F63F3A"/>
      <path stroke="null" d="m19.164213,2.21272c-1.3,-1 -3.8,0.7 -5.7,3.8s-2.5,6.3 -1.3,7.3s3.9,-0.5 5.9,-3.6c1.9,-3.1 2.4,-6.5 1.1,-7.5z" fill="#BD272E"/>
      <path stroke="null" d="m11.764213,10.61272c1,-1.1 4,0.2 6.7,3.1s4,6.2 3,7.3s-4,-0.4 -6.6,-3.2c-2.6,-2.9 -4.1,-6.1 -3.1,-7.2z" fill="#BD272E"/>
      <path stroke="null" d="m20.364213,10.21272c-1.3,-1.1 -3.9,0.6 -5.9,3.6s-2.8,6.2 -1.6,7.3c1.2,1.1 4,-0.4 6.1,-3.5c2.1,-3 2.7,-6.4 1.4,-7.4z" fill="#F63F3A"/>

      <path stroke="null" d="m12.564213,18.21272c1,-1.1 4,0.3 6.6,3.2s3.8,6.3 2.7,7.4c-1.1,1.1 -4,-0.5 -6.5,-3.4s-3.8,-6.1 -2.8,-7.2z" fill="#F63F3A"/>
      <path stroke="null" d="m21.264213,18.01272c-1.3,-1.1 -3.9,0.5 -6.1,3.5s-3.1,6.2 -1.9,7.3s4,-0.3 6.2,-3.3c2.3,-3 3,-6.4 1.8,-7.5z" fill="#BD272E"/>
      <path stroke="null" d="m13.164213,26.11272c1.1,-1.1 4,0.4 6.5,3.4s3.5,6.4 2.4,7.5s-4,-0.6 -6.4,-3.5c-2.4,-3.1 -3.6,-6.4 -2.5,-7.4z" fill="#BD272E"/>
      <path stroke="null" d="m21.764213,26.11272c-1.2,-1.1 -3.9,0.4 -6.2,3.3c-2.3,2.9 -3.3,6.1 -2.2,7.2c1.1,1.1 4,-0.3 6.4,-3.2c2.3,-2.9 3.2,-6.2 2,-7.3z" fill="#F63F3A"/>

      <path stroke="null" d="m13.364213,33.61272c1.1,-1.1 4,0.5 6.4,3.5c2.4,3 3.3,6.5 2.1,7.5c-1.2,1.1 -4,-0.6 -6.3,-3.7c-2.3,-3 -3.3,-6.3 -2.2,-7.3z" fill="#F63F3A"/>
      <path stroke="null" d="m22.064213,33.71272c-1.1,-1.1 -4,0.3 -6.4,3.2c-2.4,2.9 -3.6,6 -2.5,7.2c1.1,1.1 4,-0.2 6.5,-3c2.5,-2.9 3.5,-6.2 2.4,-7.4z" fill="#BD272E"/>

      <path stroke="null" d="m13.264213,41.31272c1.2,-1 4,0.6 6.2,3.7c2.3,3.1 3,6.5 1.8,7.5s-3.9,-0.7 -6.1,-3.8c-2.2,-3.1 -3.1,-6.4 -1.9,-7.4z" fill="#BD272E"/>
      <path stroke="null" d="m21.964213,41.71272c-1.1,-1.2 -4,0.2 -6.5,3s-3.8,5.9 -2.8,7.1s4,-0.1 6.7,-2.9c2.5,-2.8 3.7,-6.1 2.6,-7.2z" fill="#F63F3A"/>

      <path stroke="null" d="m12.864213,48.81272c1.2,-1 4,0.7 6.1,3.8s2.8,6.6 1.5,7.6s-3.9,-0.8 -6,-4c-2.1,-3.1 -2.8,-6.4 -1.6,-7.4z" fill="#F63F3A"/>
      <path stroke="null" d="m21.564213,49.41272c-1.1,-1.2 -4,0.1 -6.7,2.9c-2.7,2.7 -4.1,5.8 -3.1,7s4.1,0 6.8,-2.7c2.7,-2.7 4,-6 3,-7.2z" fill="#BD272E"/>

      <path stroke="null" d="m12.164213,56.51272c1.2,-1 4,0.7 6,3.9c2,3.2 2.5,6.6 1.2,7.6s-3.9,-0.9 -5.8,-4.1c-2.1,-3.1 -2.7,-6.4 -1.4,-7.4z" fill="#BD272E"/>
      <path stroke="null" d="m20.764213,57.31272c-1,-1.2 -4,0.1 -6.8,2.7c-2.8,2.7 -4.3,5.7 -3.4,6.9c0.9,1.2 4.1,0.1 6.9,-2.5c2.9,-2.6 4.3,-5.9 3.3,-7.1z" fill="#F63F3A"/>

      <path stroke="null" d="m2.55,71.97392c0.4,-0.2 0.7,-0.5 1.1,-0.7c-0.2,-0.3 -0.3,-0.7 -0.5,-1c0.3,-0.2 0.6,-0.4 1,-0.6c0.2,-0.2 0.4,-0.4 0.6,-0.7c0.1,-0.2 0.3,-0.5 0.4,-0.7c0,-0.3 0,-0.7 0,-1c0.1,-0.3 0.2,-0.6 0.2,-0.9c0,-0.4 -0.1,-0.8 -0.1,-1.3c0.7,0.2 1.3,0.4 2,0.6c0.1,-0.3 0.2,-0.6 0.2,-1s0.1,-0.9 0.1,-1.3c0.3,-0.1 0.6,-0.2 0.9,-0.3c0.4,0.1 0.8,0.3 1.2,0.4c0,-0.6 0,-1.2 0.1,-1.8c0.2,-0.2 0.5,-0.4 0.7,-0.6c0.4,0.1 0.7,0.2 1,0.3c0.2,-0.3 0.4,-0.7 0.6,-1c0.4,0.3 0.7,0.7 1.1,1c0.3,0.2 0.6,0.3 0.9,0.5c0.2,-0.4 0.5,-0.9 0.7,-1.3c0.3,0.3 0.5,0.6 0.8,0.9c0.3,-0.2 0.6,-0.4 0.8,-0.6c0.3,-0.2 0.6,-0.5 0.9,-0.7c0.2,0.3 0.5,0.6 0.7,0.8c0.2,0.3 0.4,0.5 0.6,0.8c0.3,0 0.5,0 0.8,0.1c0.2,0.3 0.4,0.5 0.5,0.8c0.3,0 0.6,-0.1 0.9,-0.1c0.4,-0.2 0.9,-0.5 1.3,-0.7c0.2,0.2 0.5,0.4 0.7,0.5c0.3,0.1 0.6,0.2 0.8,0.3c0,0.5 0,0.9 0,1.4c0.4,0 0.9,-0.1 1.3,-0.2c0,0.4 0,0.8 0,1.3c0.3,0.2 0.5,0.3 0.8,0.5c0.1,0.3 0.2,0.6 0.2,0.9s0,0.7 0.1,1c0.3,0.2 0.6,0.3 1,0.5c0.2,0.3 0.4,0.5 0.6,0.8c0.1,0.3 0.2,0.6 0.3,0.9c0,0.3 -0.1,0.7 -0.1,1c-0.1,0.3 -0.2,0.7 -0.4,1c0.1,0.3 0.3,0.6 0.4,0.9c-0.5,0.3 -1,0.7 -1.5,1c0.5,0.3 1,0.7 1.6,1c-0.4,0.3 -0.8,0.5 -1.3,0.8c0.1,0.3 0.3,0.7 0.4,1c0.2,0.4 0.3,0.8 0.5,1.2c-0.1,0.3 -0.2,0.7 -0.3,1c-0.4,0.2 -0.8,0.4 -1.2,0.5c-0.3,0.2 -0.6,0.4 -0.9,0.6c0.1,0.4 0.1,0.9 0.2,1.3c-0.2,0.2 -0.5,0.5 -0.7,0.7c-0.1,0.4 -0.2,0.7 -0.3,1.1c-0.2,0.3 -0.4,0.6 -0.6,0.9c-0.5,-0.1 -1,-0.3 -1.5,-0.4c-0.3,0 -0.7,0 -1,0c0.1,0.8 0.1,1.5 0.2,2.3c-0.3,0.1 -0.7,0.1 -1,0.2s-0.6,0.2 -0.9,0.4c-0.4,-0.3 -0.8,-0.7 -1.2,-1c-0.3,0 -0.6,0 -0.8,0c-0.3,0.1 -0.5,0.1 -0.8,0.2s-0.5,0.3 -0.8,0.4c-0.3,0.2 -0.6,0.5 -0.8,0.7c-0.3,0.5 -0.7,1 -1,1.5c-0.3,-0.3 -0.5,-0.6 -0.8,-0.9c-0.3,-0.1 -0.5,-0.2 -0.8,-0.3c-0.2,-0.2 -0.5,-0.3 -0.7,-0.5c-0.2,-0.3 -0.3,-0.6 -0.5,-1c-0.4,0.3 -0.9,0.7 -1.3,1c-0.1,-0.4 -0.2,-0.9 -0.3,-1.3c-0.3,-0.1 -0.5,-0.2 -0.8,-0.2c-0.5,0.3 -1,0.5 -1.5,0.8c-0.4,0 -0.7,0 -1.1,0c-0.2,-0.2 -0.5,-0.4 -0.7,-0.6c0.2,-0.6 0.3,-1.2 0.5,-1.8c-0.4,0 -0.7,-0.1 -1.1,-0.1c0.2,-0.5 0.4,-1.1 0.6,-1.6c-0.3,-0.1 -0.6,-0.2 -0.9,-0.3c-0.4,-0.1 -0.7,-0.2 -1.1,-0.3c0.1,-0.4 0.2,-0.7 0.3,-1.1c-0.2,-0.2 -0.5,-0.4 -0.7,-0.6s-0.4,-0.4 -0.6,-0.7c0,-0.3 0.1,-0.6 0.2,-0.9c0,-0.3 0,-0.6 0,-0.9c-0.2,-0.2 -0.4,-0.5 -0.6,-0.7c0.1,-0.3 0.2,-0.6 0.3,-0.9c0.3,-0.3 0.6,-0.6 0.9,-0.9c-0.3,-0.3 -0.5,-0.5 -0.8,-0.8c0.2,-0.3 0.4,-0.5 0.6,-0.8c0,0 -0.3,-0.4 -0.6,-0.7z" fill="#F63F3A"/>

    </symbol>
  </defs>
  <use xlink:href="#pompom" x="0" y="0"></use>
</svg>
