<?xml version="1.0" encoding="utf-8"?>
<!-- Generator: Adobe Illustrator 21.1.0, SVG Export Plug-In . SVG Version: 6.00 Build 0)  -->
<svg version="1.1" id="Calque_1" xmlns="http://www.w3.org/2000/svg" xmlns:xlink="http://www.w3.org/1999/xlink" x="0px" y="0px"
	 viewBox="0 0 130 130" style="enable-background:new 0 0 130 130;" xml:space="preserve">
<style type="text/css">
	.st0{fill:#F34141;}
	.st1{fill:#FFFFFF;}
</style>
<rect class="st0" width="130" height="130"/>
<path class="st1" d="M68.5,52.6c-3.5,0-6.7,1.3-9.1,3.8c-2.4,2.5-3.7,5.6-3.7,9.2c0,3.5,1.3,6.7,3.6,9.2c2.4,2.5,5.5,3.8,9,3.8
	c1.4,0,3-0.4,4.6-1.2c0.9-0.3,1.9-1.1,3-2.3l1.4-1.5V78h3.9V65.7c0-3.6-1.3-6.7-3.7-9.2C75.2,54,72.2,52.6,68.5,52.6L68.5,52.6z
	 M74.9,72.2L74.9,72.2c-1.7,1.8-3.9,2.7-6.3,2.7c-2.5,0-4.7-0.9-6.4-2.7c-1.7-1.8-2.5-4-2.5-6.5c0-2.5,0.8-4.7,2.5-6.5
	c1.7-1.9,3.9-2.8,6.4-2.8s4.6,0.9,6.3,2.8s2.6,4,2.6,6.5C77.5,68.1,76.6,70.3,74.9,72.2L74.9,72.2z M31.3,52.6c-3.6,0-6.7,1.3-9.2,4
	s-3.7,5.8-3.7,9.5c0,3.7,1.3,6.7,4,9.2c2.4,2.3,5.6,3.5,9.2,3.5v-3.5c-2.4-0.1-4.5-0.8-6.2-2.4c-1.8-1.6-2.7-3.7-2.9-6.3v-0.3h21.2
	c-0.1-3.7-1.1-6.9-3.2-9.4C38.3,54.1,35.1,52.6,31.3,52.6L31.3,52.6z M23.4,62.5l0.2-0.4c1.2-3.7,3.8-5.7,7.8-5.7
	c1.8,0,3.5,0.5,5,1.5c1.5,1,2.5,2.4,3,4.1l0.1,0.4H23.4z M98.2,52.6c-3.7,0-6.8,1.3-9.4,3.8c-2.5,2.5-3.8,5.7-3.8,9.3
	c0,3.6,1.3,6.7,3.9,9.3c2.5,2.5,5.7,3.8,9.4,3.8s6.8-1.3,9.4-3.8c2.5-2.5,3.9-5.7,3.9-9.3c0-3.6-1.3-6.7-3.8-9.3
	C105.1,53.9,101.9,52.6,98.2,52.6L98.2,52.6z M104.9,72.2c-1.8,1.8-4,2.7-6.6,2.7c-2.5,0-4.8-0.9-6.6-2.7c-1.8-1.8-2.7-4-2.7-6.5
	c0-2.5,0.9-4.8,2.7-6.6c1.8-1.8,4-2.7,6.6-2.7c2.5,0,4.8,0.9,6.6,2.7c1.8,1.8,2.7,4,2.7,6.6C107.6,68.2,106.7,70.4,104.9,72.2z
	 M48.4,78.2c-0.4-0.4-0.6-0.8-0.6-1.4V44.3h4v32.4c0,0.6-0.2,1-0.6,1.4c-0.4,0.4-0.8,0.6-1.4,0.6C49.2,78.7,48.8,78.5,48.4,78.2
	L48.4,78.2z M45.1,47.6l-4.7,6.2l-3.1-2.4l4.8-6.2c0,0,0.8-1,2.3,0.1C45.7,46.4,45.3,47.3,45.1,47.6L45.1,47.6z"/>
</svg>
