<?xml version="1.0" encoding="utf-8"?>
<!-- Generator: Adobe Illustrator 21.1.0, SVG Export Plug-In . SVG Version: 6.00 Build 0)  -->
<svg version="1.1" id="Calque_1" xmlns="http://www.w3.org/2000/svg" xmlns:xlink="http://www.w3.org/1999/xlink" x="0px" y="0px"
	 viewBox="0 0 750 46.1" style="enable-background:new 0 0 750 46.1;" xml:space="preserve">
<style type="text/css">
	.st0{fill:#E7413E;}
</style>
<path class="st0" d="M14.2,40.6c-4.1,0-8.7-7.2-8.7-17.6c0-10.3,4.6-17.6,8.7-17.6V0.2c-7.9,0-14,10-14,22.8s6.2,22.8,14,22.8V40.6z
	"/>
<path class="st0" d="M44.3,40.6c-4.1,0-8.7-7.2-8.7-17.6c0-10.3,4.6-17.6,8.7-17.6V0.2c-7.9,0-14,10-14,22.8s6.2,22.8,14,22.8V40.6z
	"/>
<path class="st0" d="M74.4,40.6c-4.1,0-8.7-7.2-8.7-17.6c0-10.3,4.6-17.6,8.7-17.6V0.2c-7.9,0-14,10-14,22.8s6.2,22.8,14,22.8V40.6z
	"/>
<path class="st0" d="M104.5,40.6c-4.1,0-8.7-7.2-8.7-17.6c0-10.3,4.6-17.6,8.7-17.6V0.2c-7.9,0-14,10-14,22.8s6.2,22.8,14,22.8V40.6
	z"/>
<path class="st0" d="M134.5,40.6c-4.1,0-8.7-7.2-8.7-17.6c0-10.3,4.6-17.6,8.7-17.6V0.2c-7.9,0-14,10-14,22.8s6.2,22.8,14,22.8V40.6
	z"/>
<path class="st0" d="M164.6,40.6c-4.1,0-8.7-7.2-8.7-17.6c0-10.3,4.6-17.6,8.7-17.6V0.2c-7.9,0-14,10-14,22.8s6.2,22.8,14,22.8V40.6
	z"/>
<path class="st0" d="M194.7,40.6c-4.1,0-8.7-7.2-8.7-17.6c0-10.3,4.6-17.6,8.7-17.6V0.2c-7.9,0-14,10-14,22.8s6.2,22.8,14,22.8V40.6
	z"/>
<path class="st0" d="M224.7,40.6c-4.1,0-8.7-7.2-8.7-17.6c0-10.3,4.6-17.6,8.7-17.6V0.2c-7.9,0-14,10-14,22.8s6.2,22.8,14,22.8V40.6
	z"/>
<path class="st0" d="M254.8,40.6c-4.1,0-8.7-7.2-8.7-17.6c0-10.3,4.6-17.6,8.7-17.6V0.2c-7.9,0-14,10-14,22.8s6.2,22.8,14,22.8V40.6
	z"/>
<path class="st0" d="M284.9,40.6c-4.1,0-8.7-7.2-8.7-17.6c0-10.3,4.6-17.6,8.7-17.6V0.2c-7.9,0-14,10-14,22.8s6.2,22.8,14,22.8V40.6
	z"/>
<path class="st0" d="M315,40.6c-4.1,0-8.7-7.2-8.7-17.6c0-10.3,4.6-17.6,8.7-17.6V0.2c-7.9,0-14,10-14,22.8s6.2,22.8,14,22.8V40.6z"
	/>
<path class="st0" d="M345,40.6c-4.1,0-8.7-7.2-8.7-17.6c0-10.3,4.6-17.6,8.7-17.6V0.2c-7.9,0-14,10-14,22.8s6.2,22.8,14,22.8V40.6z"
	/>
<path class="st0" d="M375.1,40.6c-4.1,0-8.7-7.2-8.7-17.6c0-10.3,4.6-17.6,8.7-17.6V0.2c-7.9,0-14,10-14,22.8s6.2,22.8,14,22.8V40.6
	z"/>
<path class="st0" d="M405.2,40.6c-4.1,0-8.7-7.2-8.7-17.6c0-10.3,4.6-17.6,8.7-17.6V0.2c-7.9,0-14,10-14,22.8s6.2,22.8,14,22.8V40.6
	z"/>
<path class="st0" d="M435.2,40.6c-4.1,0-8.7-7.2-8.7-17.6c0-10.3,4.6-17.6,8.7-17.6V0.2c-7.9,0-14,10-14,22.8s6.2,22.8,14,22.8V40.6
	z"/>
<path class="st0" d="M465.3,40.6c-4.1,0-8.7-7.2-8.7-17.6c0-10.3,4.6-17.6,8.7-17.6V0.2c-7.9,0-14,10-14,22.8s6.2,22.8,14,22.8V40.6
	z"/>
<path class="st0" d="M495.4,40.6c-4.1,0-8.7-7.2-8.7-17.6c0-10.3,4.6-17.6,8.7-17.6V0.2c-7.9,0-14,10-14,22.8s6.2,22.8,14,22.8V40.6
	z"/>
<path class="st0" d="M525.5,40.6c-4.1,0-8.7-7.2-8.7-17.6c0-10.3,4.6-17.6,8.7-17.6V0.2c-7.9,0-14,10-14,22.8s6.2,22.8,14,22.8V40.6
	z"/>
<path class="st0" d="M555.5,40.6c-4.1,0-8.7-7.2-8.7-17.6c0-10.3,4.6-17.6,8.7-17.6V0.2c-7.9,0-14,10-14,22.8s6.2,22.8,14,22.8V40.6
	z"/>
<path class="st0" d="M585.6,40.6c-4.1,0-8.7-7.2-8.7-17.6c0-10.3,4.6-17.6,8.7-17.6V0.2c-7.9,0-14,10-14,22.8s6.2,22.8,14,22.8V40.6
	z"/>
<path class="st0" d="M615.7,40.6c-4.1,0-8.7-7.2-8.7-17.6c0-10.3,4.6-17.6,8.7-17.6V0.2c-7.9,0-14,10-14,22.8s6.2,22.8,14,22.8V40.6
	z"/>
<path class="st0" d="M645.8,40.6c-4.1,0-8.7-7.2-8.7-17.6c0-10.3,4.6-17.6,8.7-17.6V0.2c-7.9,0-14,10-14,22.8s6.2,22.8,14,22.8V40.6
	z"/>
<path class="st0" d="M675.8,40.6c-4.1,0-8.7-7.2-8.7-17.6c0-10.3,4.6-17.6,8.7-17.6V0.2c-7.9,0-14,10-14,22.8s6.2,22.8,14,22.8V40.6
	z"/>
<path class="st0" d="M705.9,40.6c-4.1,0-8.7-7.2-8.7-17.6c0-10.3,4.6-17.6,8.7-17.6V0.2c-7.9,0-14,10-14,22.8s6.2,22.8,14,22.8V40.6
	z"/>
<path class="st0" d="M736,40.6c-4.1,0-8.7-7.2-8.7-17.6c0-10.3,4.6-17.6,8.7-17.6V0.2c-7.9,0-14,10-14,22.8s6.2,22.8,14,22.8V40.6z"
	/>
</svg>
